<svg width="24" height="25" viewBox="0 0 24 25" fill="none" xmlns="http://www.w3.org/2000/svg">
<g clip-path="url(#clip0_289_14)">
<path d="M16 16.6667C16 16.9429 15.8946 17.2079 15.7071 17.4032C15.5196 17.5986 15.2652 17.7083 15 17.7083H13V19.7917C13 20.0679 12.8946 20.3329 12.7071 20.5282C12.5196 20.7236 12.2652 20.8333 12 20.8333C11.7348 20.8333 11.4804 20.7236 11.2929 20.5282C11.1054 20.3329 11 20.0679 11 19.7917V17.7083H9C8.73478 17.7083 8.48043 17.5986 8.29289 17.4032C8.10536 17.2079 8 16.9429 8 16.6667C8 16.3904 8.10536 16.1254 8.29289 15.9301C8.48043 15.7347 8.73478 15.625 9 15.625H11V13.5417C11 13.2654 11.1054 13.0004 11.2929 12.8051C11.4804 12.6097 11.7348 12.5 12 12.5C12.2652 12.5 12.5196 12.6097 12.7071 12.8051C12.8946 13.0004 13 13.2654 13 13.5417V15.625H15C15.2652 15.625 15.5196 15.7347 15.7071 15.9301C15.8946 16.1254 16 16.3904 16 16.6667ZM22 10.9219V19.7917C21.9984 21.1725 21.4711 22.4963 20.5338 23.4727C19.5964 24.4491 18.3256 24.9983 17 25H7C5.67441 24.9983 4.40356 24.4491 3.46622 23.4727C2.52888 22.4963 2.00159 21.1725 2 19.7917V5.20833C2.00159 3.8275 2.52888 2.5037 3.46622 1.52731C4.40356 0.550912 5.67441 0.00164751 7 -6.50854e-06H11.515C12.4346 -0.00247206 13.3456 0.184981 14.1952 0.551513C15.0449 0.918046 15.8163 1.45639 16.465 2.13541L19.949 5.76666C20.6012 6.44191 21.1184 7.24526 21.4704 8.13017C21.8225 9.01509 22.0025 9.96397 22 10.9219ZM15.051 3.60833C14.7363 3.29079 14.3829 3.01762 14 2.79583V7.29166C14 7.56793 14.1054 7.83288 14.2929 8.02823C14.4804 8.22358 14.7348 8.33333 15 8.33333H19.316C19.103 7.93457 18.8404 7.56681 18.535 7.23958L15.051 3.60833ZM20 10.9219C20 10.75 19.968 10.5854 19.953 10.4167H15C14.2044 10.4167 13.4413 10.0874 12.8787 9.50137C12.3161 8.91532 12 8.12046 12 7.29166V2.13229C11.838 2.11666 11.679 2.08333 11.515 2.08333H7C6.20435 2.08333 5.44129 2.41257 4.87868 2.99862C4.31607 3.58467 4 4.37953 4 5.20833V19.7917C4 20.6205 4.31607 21.4153 4.87868 22.0014C5.44129 22.5874 6.20435 22.9167 7 22.9167H17C17.7956 22.9167 18.5587 22.5874 19.1213 22.0014C19.6839 21.4153 20 20.6205 20 19.7917V10.9219Z" fill="white"/>
</g>
<defs>
<clipPath id="clip0_289_14">
<rect width="24" height="25" fill="white"/>
</clipPath>
</defs>
</svg>
