<svg xmlns="http://www.w3.org/2000/svg" width="101.745" height="32.905" viewBox="0 0 101.745 36.905" data-v-24e094ae=""><g transform="translate(-593.107 -1537.342)"><path d="M612.858,1574.247v-15.974h16.913l1.815,2.366,1.874-2.366h61.392v14.872a7.092,7.092,0,0,1-3.463,1.1H657.4l-2.046-2.518v2.518h-6.7v-4.3a5.626,5.626,0,0,1-2.9.6h-2.282v3.7H633.317l-1.812-2.416-1.84,2.416Z" fill="#fff" fill-rule="evenodd"></path> <path d="M593.107,1546.234l3.814-8.892h6.6l2.164,4.981v-4.981h8.2l1.288,3.6,1.25-3.6h36.806v1.81a7.941,7.941,0,0,1,5.115-1.81l11.943.042,2.127,4.915v-4.957h6.861l1.889,2.823v-2.823h6.925v15.974H681.16l-1.81-2.833v2.833H669.269l-1.014-2.518h-2.71l-1,2.518h-6.836a6.758,6.758,0,0,1-4.486-1.773v1.773H642.917l-2.046-2.518v2.518H602.54l-1.013-2.518h-2.7l-1.006,2.518h-4.712v-7.082Z" fill="#fff" fill-rule="evenodd"></path> <path d="M598.271,1539.311l-5.144,11.961h3.349l.949-2.4h5.518l.944,2.4h3.423l-5.139-11.961Zm1.9,2.784,1.682,4.185h-3.369l1.687-4.185Z" fill="#016fd0" fill-rule="evenodd"></path> <path d="M607.664,1551.27v-11.961l4.759.018,2.768,7.712,2.7-7.729h4.721v11.961h-2.99v-8.813l-3.17,8.813h-2.622l-3.179-8.813v8.813Z" fill="#016fd0" fill-rule="evenodd"></path> <path d="M624.661,1551.27v-11.961h9.757v2.675h-6.736v2.046h6.578v2.518h-6.578v2.125h6.736v2.6Z" fill="#016fd0" fill-rule="evenodd"></path> <path d="M636.15,1539.311v11.961h2.99v-4.25H640.4l3.585,4.25h3.654l-3.934-4.407a3.642,3.642,0,0,0,3.28-3.674,3.868,3.868,0,0,0-4.18-3.88Zm2.99,2.676h3.418a1.372,1.372,0,0,1,1.416,1.259,1.351,1.351,0,0,1-1.372,1.259H639.14v-2.518Z" fill="#016fd0" fill-rule="evenodd"></path> <path d="M651.258,1551.27H648.2v-11.961h3.053v11.961Z" fill="#016fd0" fill-rule="evenodd"></path> <path d="M658.5,1551.27h-.659c-3.188,0-5.124-2.512-5.124-5.932,0-3.5,1.914-6.029,5.941-6.029h3.3v2.833h-3.426c-1.635,0-2.791,1.275-2.791,3.226,0,2.316,1.322,3.289,3.227,3.289h.787l-1.26,2.613Z" fill="#016fd0" fill-rule="evenodd"></path> <path d="M665,1539.311l-5.144,11.961h3.349l.949-2.4h5.518l.945,2.4h3.422l-5.139-11.961Zm1.9,2.784,1.682,4.185H665.22l1.687-4.185Z" fill="#016fd0" fill-rule="evenodd"></path> <path d="M674.393,1551.27v-11.961h3.8l4.854,7.515v-7.515h2.99v11.961H682.36l-4.977-7.711v7.711Z" fill="#016fd0" fill-rule="evenodd"></path> <path d="M614.9,1572.2V1560.24h9.758v2.676h-6.736v2.046H624.5v2.518h-6.578v2.125h6.736v2.6Z" fill="#016fd0" fill-rule="evenodd"></path> <path d="M662.715,1572.2V1560.24h9.758v2.676h-6.736v2.046h6.547v2.518h-6.547v2.125h6.736v2.6Z" fill="#016fd0" fill-rule="evenodd"></path> <path d="M625.04,1572.2l4.751-5.907-4.864-6.054h3.767l2.9,3.743,2.907-3.743h3.62l-4.8,5.98,4.76,5.98H634.31l-2.813-3.684-2.744,3.684Z" fill="#016fd0" fill-rule="evenodd"></path> <path d="M638.432,1560.242V1572.2H641.5v-3.777h3.147c2.663,0,4.682-1.413,4.682-4.161a3.936,3.936,0,0,0-4.293-4.023Zm3.069,2.705h3.314a1.35,1.35,0,0,1,1.476,1.377,1.379,1.379,0,0,1-1.485,1.377H641.5v-2.754Z" fill="#016fd0" fill-rule="evenodd"></path> <path d="M650.629,1560.24V1572.2h2.99v-4.249h1.259l3.585,4.249h3.654l-3.934-4.407a3.642,3.642,0,0,0,3.28-3.673,3.87,3.87,0,0,0-4.18-3.881Zm2.99,2.676h3.418a1.372,1.372,0,0,1,1.416,1.259,1.352,1.352,0,0,1-1.372,1.259h-3.462v-2.518Z" fill="#016fd0" fill-rule="evenodd"></path> <path d="M673.857,1572.2v-2.6h5.985c.885,0,1.269-.478,1.269-1,0-.5-.383-1.011-1.269-1.011h-2.7a3.343,3.343,0,0,1-3.66-3.582c0-1.918,1.2-3.768,4.692-3.768h5.823l-1.259,2.692H677.7c-.963,0-1.259.505-1.259.987a1.043,1.043,0,0,0,1.1,1.043h2.833c2.62,0,3.757,1.486,3.757,3.433a3.586,3.586,0,0,1-3.9,3.806Z" fill="#016fd0" fill-rule="evenodd"></path> <path d="M684.832,1572.2v-2.6h5.731c.886,0,1.269-.478,1.269-1,0-.5-.382-1.011-1.269-1.011h-2.451a3.343,3.343,0,0,1-3.659-3.582c0-1.918,1.2-3.768,4.691-3.768h5.708l-1.259,2.692h-4.921c-.963,0-1.259.505-1.259.987a1.043,1.043,0,0,0,1.1,1.043h2.579c2.621,0,3.758,1.486,3.758,3.433a3.586,3.586,0,0,1-3.9,3.806Z" fill="#016fd0" fill-rule="evenodd"></path></g></svg>