<svg xmlns="http://www.w3.org/2000/svg" width="15.307" height="15.307" viewBox="0 0 15.307 15.307" data-v-7e6e040b=""><g transform="translate(0.5 0.5)"><path d="M515.3,5027.842h1.244a2.177,2.177,0,0,0,2.177-2.178v-.893" transform="translate(-506.596 -5014.468)" fill="none" stroke="#fff" stroke-linejoin="round" stroke-width="1"></path> <path d="M509.605,5034.368a.933.933,0,1,1-.933-.933A.933.933,0,0,1,509.605,5034.368Z" transform="translate(-500.897 -5020.995)" fill="none" stroke="#fff" stroke-linecap="round" stroke-linejoin="round" stroke-width="1"></path> <path d="M532,5010.467c.987,0,1.48-.547,1.48-1.233S532.987,5008,532,5008" transform="translate(-519.173 -5001.833)" fill="none" stroke="#fff" stroke-linecap="round" stroke-linejoin="round" stroke-width="1"></path> <path d="M481.48,5010.467c-.987,0-1.48-.547-1.48-1.233s.493-1.233,1.48-1.233" transform="translate(-480 -5001.833)" fill="none" stroke="#fff" stroke-linecap="round" stroke-linejoin="round" stroke-width="1"></path> <path d="M522,5006.92h1.233c.761,0,1.233-.247,1.233-1.03v-3.732a1.178,1.178,0,0,0-1.233-1.158H522Z" transform="translate(-511.64 -4996.56)" fill="none" stroke="#fff" stroke-linecap="round" stroke-linejoin="round" stroke-width="1"></path> <path d="M488.467,5006.92h-1.233c-.761,0-1.233-.247-1.233-1.03v-3.732a1.178,1.178,0,0,1,1.233-1.158h1.233Z" transform="translate(-484.52 -4996.56)" fill="none" stroke="#fff" stroke-linecap="round" stroke-linejoin="round" stroke-width="1"></path> <path d="M491,4987.44a4.5,4.5,0,0,1,4.44-4.44,4.428,4.428,0,0,1,4.354,4.44" transform="translate(-488.287 -4983)" fill="none" stroke="#fff" stroke-linejoin="round" stroke-width="1"></path></g></svg>