<svg width="22" height="27" viewBox="0 0 22 27" fill="none" xmlns="http://www.w3.org/2000/svg">
<path d="M21.2702 5.76562C20.9619 5.36989 20.5701 5.05051 20.1241 4.83136C19.6781 4.6122 19.1894 4.49893 18.6946 4.5H13.934L14.0738 3.25125C14.1035 2.97675 14.2309 2.72301 14.4317 2.53837C14.6326 2.35372 14.8929 2.25109 15.163 2.25H19.7948C20.0866 2.25 20.3664 2.13147 20.5728 1.9205C20.7791 1.70952 20.895 1.42337 20.895 1.125C20.895 0.826631 20.7791 0.540483 20.5728 0.329505C20.3664 0.118526 20.0866 0 19.7948 0L15.163 0C14.3508 0.000189334 13.5672 0.306584 12.9621 0.860561C12.357 1.41454 11.9729 2.1772 11.8833 3.00262L11.7204 4.5H3.29177C2.80811 4.50459 2.33126 4.6171 1.89453 4.82968C1.4578 5.04226 1.07173 5.34977 0.763281 5.73074C0.454831 6.1117 0.231444 6.55694 0.108724 7.03534C-0.0139965 7.51374 -0.0330902 8.01377 0.0527764 8.5005L1.71628 22.0747C1.88484 23.4339 2.53198 24.6838 3.53661 25.5903C4.54124 26.4969 5.83451 26.998 7.17439 27H14.8109C16.151 26.9978 17.4444 26.4964 18.4492 25.5897C19.454 24.683 20.1013 23.433 20.2701 22.0736L21.9204 8.60962C22.0287 8.11612 22.0265 7.60397 21.9139 7.11147C21.8013 6.61898 21.5812 6.15889 21.2702 5.76562ZM18.6946 6.75C18.8596 6.74994 19.0225 6.78782 19.1712 6.86085C19.32 6.93387 19.4508 7.04017 19.5539 7.17188C19.6644 7.31995 19.7397 7.49226 19.7738 7.6752C19.808 7.85815 19.8001 8.04671 19.7508 8.226L19.3789 11.25H13.2002L13.6898 6.75H18.6946ZM2.43472 7.17075C2.53771 7.03955 2.66818 6.93364 2.8165 6.86083C2.96483 6.78801 3.12724 6.75014 3.29177 6.75H11.474L10.9844 11.25H2.60305L2.21798 8.118C2.18191 7.95362 2.18268 7.78302 2.22021 7.61898C2.25775 7.45495 2.33108 7.30171 2.43472 7.17075ZM18.0862 21.7957C17.9848 22.6112 17.5964 23.3609 16.9935 23.9046C16.3907 24.4484 15.6148 24.7489 14.8109 24.75H7.17439C6.37039 24.7498 5.59409 24.4496 4.99124 23.9057C4.38838 23.3617 4.00042 22.6115 3.90019 21.7957L2.8803 13.5H19.1028L18.0862 21.7957ZM12.5753 16.9987L12.0868 21.4988C12.0709 21.6456 12.0269 21.7878 11.9572 21.9173C11.8876 22.0467 11.7937 22.1609 11.6809 22.2532C11.5681 22.3456 11.4387 22.4143 11.2999 22.4555C11.1611 22.4967 11.0158 22.5095 10.8722 22.4932C10.7286 22.477 10.5895 22.432 10.4629 22.3608C10.3363 22.2896 10.2246 22.1935 10.1343 22.0782C10.044 21.9629 9.9768 21.8305 9.93652 21.6886C9.89625 21.5467 9.8837 21.3981 9.89959 21.2512L10.3881 16.7513C10.424 16.4562 10.5712 16.1871 10.7982 16.0013C11.0253 15.8155 11.3144 15.7278 11.6038 15.7567C11.8937 15.7898 12.1588 15.9392 12.341 16.1721C12.5231 16.405 12.6074 16.7023 12.5753 16.9987Z" fill="black"/>
</svg>
