<svg width="35" height="35" viewBox="0 0 35 35" fill="none" xmlns="http://www.w3.org/2000/svg" class="icon-cart" data-v-601fd046=""><path d="M26.5494 24.6829H11.3551C10.7399 24.682 10.1461 24.457 9.68472 24.05C9.22338 23.643 8.92609 23.0819 8.84849 22.4716L6.46325 3.39064H2.19532C1.8783 3.39064 1.57429 3.26471 1.35012 3.04054C1.12595 2.81638 1 2.51234 1 2.19532C1 1.8783 1.12595 1.57427 1.35012 1.3501C1.57429 1.12593 1.8783 1 2.19532 1H7.51871C7.81 1.00008 8.09122 1.10653 8.30956 1.29934C8.52791 1.49215 8.66836 1.75807 8.70448 2.04711L9.40552 7.65436H32.8051C32.9972 7.65443 33.1864 7.7008 33.3568 7.78951C33.5271 7.87822 33.6736 8.00667 33.7838 8.164C33.8939 8.32132 33.9646 8.50286 33.9897 8.69328C34.0149 8.88369 33.9937 9.07737 33.9281 9.25789L28.9233 23.0214C28.745 23.5079 28.4218 23.928 27.9974 24.225C27.5729 24.5221 27.0675 24.6819 26.5494 24.6829ZM9.70435 10.0438L11.2206 22.1763C11.2245 22.2092 11.2404 22.2396 11.2652 22.2616C11.29 22.2836 11.322 22.2958 11.3551 22.2959H26.5494C26.5773 22.2957 26.6045 22.2871 26.6274 22.2711C26.6503 22.2551 26.6677 22.2324 26.6773 22.2062L31.1 10.0474L9.70435 10.0438Z" fill="#fff" stroke="#fff" stroke-width="0.5" stroke-linecap="round"></path> <path d="M26.1497 33.9978C25.3867 33.9979 24.6409 33.7718 24.0065 33.348C23.3721 32.9243 22.8776 32.3219 22.5855 31.617C22.2935 30.9122 22.217 30.1366 22.3658 29.3884C22.5146 28.6401 22.8819 27.9527 23.4213 27.4132C23.9608 26.8737 24.648 26.5062 25.3963 26.3574C26.1446 26.2085 26.9202 26.2848 27.6251 26.5768C28.3299 26.8687 28.9324 27.3631 29.3562 27.9975C29.7801 28.6318 30.0064 29.3776 30.0064 30.1405C30.0053 31.1631 29.5986 32.1435 28.8756 32.8666C28.1526 33.5897 27.1722 33.9966 26.1497 33.9978ZM26.1497 28.6738C25.8596 28.6737 25.5759 28.7596 25.3347 28.9207C25.0934 29.0818 24.9053 29.3109 24.7942 29.5788C24.6831 29.8468 24.654 30.1417 24.7105 30.4263C24.767 30.7108 24.9067 30.9722 25.1118 31.1774C25.3169 31.3826 25.5782 31.5223 25.8627 31.5789C26.1472 31.6356 26.4421 31.6066 26.7102 31.4956C26.9782 31.3846 27.2073 31.1966 27.3685 30.9554C27.5297 30.7142 27.6157 30.4306 27.6157 30.1405C27.6152 29.7518 27.4606 29.3791 27.1858 29.1042C26.911 28.8292 26.5384 28.6745 26.1497 28.6738Z" fill="#fff" stroke="#fff" stroke-width="0.5" stroke-linecap="round"></path> <path d="M11.5121 33.9978C10.7492 33.9978 10.0034 33.7716 9.36911 33.3477C8.73478 32.9239 8.24037 32.3215 7.94842 31.6166C7.65647 30.9118 7.58006 30.1362 7.7289 29.388C7.87773 28.6397 8.24513 27.9524 8.78458 27.413C9.32403 26.8735 10.0113 26.5062 10.7596 26.3573C11.5078 26.2085 12.2834 26.2849 12.9882 26.5768C13.6931 26.8688 14.2955 27.3632 14.7193 27.9975C15.1432 28.6318 15.3694 29.3776 15.3694 30.1405C15.3683 31.1632 14.9615 32.1437 14.2384 32.8668C13.5152 33.5899 12.5348 33.9967 11.5121 33.9978ZM11.5121 28.6738C11.222 28.6738 10.9384 28.7599 10.6972 28.921C10.4561 29.0822 10.2681 29.3112 10.1571 29.5792C10.0461 29.8472 10.017 30.1421 10.0736 30.4266C10.1302 30.7111 10.2699 30.9725 10.475 31.1776C10.6801 31.3827 10.9415 31.5224 11.226 31.579C11.5105 31.6356 11.8054 31.6065 12.0734 31.4955C12.3414 31.3845 12.5704 31.1965 12.7316 30.9553C12.8927 30.7141 12.9787 30.4306 12.9787 30.1405C12.9784 29.7516 12.8238 29.3788 12.5488 29.1038C12.2738 28.8288 11.901 28.6742 11.5121 28.6738Z" fill="#fff" stroke="#fff" stroke-width="0.5" stroke-linecap="round"></path></svg>