<svg width="88" height="88" viewBox="0 0 88 88" fill="none" xmlns="http://www.w3.org/2000/svg">
<g clip-path="url(#clip0_52_5)">
<path d="M76 47H79C79.2652 47 79.5196 46.8946 79.7071 46.7071C79.8946 46.5196 80 46.2652 80 46V36C80 35.7348 79.8946 35.4804 79.7071 35.2929C79.5196 35.1054 79.2652 35 79 35H76C74.4087 35 72.8826 35.6321 71.7574 36.7574C70.6321 37.8826 70 39.4087 70 41C70 42.5913 70.6321 44.1174 71.7574 45.2426C72.8826 46.3679 74.4087 47 76 47ZM76 37H78V45H76C74.9391 45 73.9217 44.5786 73.1716 43.8284C72.4214 43.0783 72 42.0609 72 41C72 39.9391 72.4214 38.9217 73.1716 38.1716C73.9217 37.4214 74.9391 37 76 37Z" fill="white"/>
<path d="M78 66.362V61.22C78.0091 58.7621 77.2886 56.3567 75.9296 54.3086C74.5706 52.2605 72.6343 50.6618 70.366 49.715C70.3 49.687 70.234 49.657 70.167 49.63C69.955 49.546 69.739 49.47 69.521 49.398C69.39 49.353 69.261 49.307 69.128 49.267C69.084 49.254 69.043 49.237 69 49.224V38.05C68.9984 37.1054 68.6667 36.1911 68.0623 35.4652C67.4578 34.7394 66.6187 34.2476 65.69 34.075C65.4151 33.4583 64.9677 32.9342 64.4016 32.5661C63.8356 32.1979 63.1752 32.0013 62.5 32H47.445L39.431 23.095C40.5127 22.4865 41.4132 21.6015 42.0403 20.5305C42.6674 19.4595 42.9986 18.2411 43 17V14H48C49.3256 13.9984 50.5964 13.4711 51.5338 12.5338C52.4711 11.5964 52.9984 10.3256 53 9C53 8.73478 52.8946 8.48043 52.7071 8.29289C52.5196 8.10536 52.2652 8 52 8H43V7C43 5.14348 42.2625 3.36301 40.9497 2.05025C39.637 0.737498 37.8565 0 36 0C34.1435 0 32.363 0.737498 31.0503 2.05025C29.7375 3.36301 29 5.14348 29 7V17C29.0005 17.992 29.2125 18.9724 29.6219 19.876C30.0313 20.7796 30.6286 21.5855 31.374 22.24C31.3461 22.2563 31.3191 22.274 31.293 22.293L27.293 26.293C27.1795 26.4065 27.0951 26.5458 27.047 26.699L21.047 45.699L21 46V51H17V39H21C21.2652 39 21.5196 38.8946 21.7071 38.7071C21.8946 38.5196 22 38.2652 22 38C22 37.7348 21.8946 37.4804 21.7071 37.2929C21.5196 37.1054 21.2652 37 21 37V22C21 21.7348 20.8946 21.4804 20.7071 21.2929C20.5196 21.1054 20.2652 21 20 21H2C1.73478 21 1.48043 21.1054 1.29289 21.2929C1.10536 21.4804 1 21.7348 1 22V37C0.734784 37 0.48043 37.1054 0.292893 37.2929C0.105357 37.4804 0 37.7348 0 38C0 38.2652 0.105357 38.5196 0.292893 38.7071C0.48043 38.8946 0.734784 39 1 39H4.34L10 52.205V57.08C8.33583 57.3213 6.81398 58.1531 5.7124 59.4236C4.61081 60.6941 4.00301 62.3184 4 64V72H1C0.734784 72 0.48043 72.1054 0.292893 72.2929C0.105357 72.4804 0 72.7348 0 73C0.00211736 74.8559 0.740295 76.6351 2.05259 77.9474C3.36489 79.2597 5.14413 79.9979 7 80H12.059C12.3034 82.2004 13.3507 84.2333 15.0003 85.7099C16.6499 87.1864 18.7861 88.0028 21 88.0028C23.2139 88.0028 25.3501 87.1864 26.9997 85.7099C28.6493 84.2333 29.6966 82.2004 29.941 80H64.059C64.3034 82.2004 65.3507 84.2333 67.0003 85.7099C68.6499 87.1864 70.7861 88.0028 73 88.0028C75.2139 88.0028 77.3501 87.1864 78.9997 85.7099C80.6493 84.2333 81.6966 82.2004 81.941 80H87C87.2652 80 87.5196 79.8946 87.7071 79.7071C87.8946 79.5196 88 79.2652 88 79C88.0084 76.0729 87.0241 73.2295 85.2078 70.934C83.3915 68.6386 80.8506 67.0269 78 66.362ZM69 51.332L69.114 51.373C70.9104 52.0292 72.4929 53.1645 73.69 54.656C74.9305 56.1868 75.7052 58.0417 75.922 60H74C72.6744 59.9984 71.4036 59.4711 70.4662 58.5338C69.5289 57.5964 69.0016 56.3256 69 55V51.332ZM61.012 50.255C61.014 59.498 61.016 70.668 61.012 74H58.9C58.6681 72.8713 58.054 71.8572 57.1614 71.1285C56.2688 70.3998 55.1523 70.0013 54 70H53.73L47.17 49.504C46.7544 48.1949 45.9324 47.0524 44.8232 46.2425C43.714 45.4325 42.3754 44.9973 41.002 45H38.428L41.404 36.817L43.294 38.707C43.4812 38.8943 43.7352 38.9997 44 39H61.01L61.012 50.255ZM40.748 74L36 57.857V53H40.268L46 71.153V74H40.748ZM12 53H34V57H12V53ZM50.662 66.976L51.63 70H47.732L46.785 67H50.542C50.5825 66.9946 50.6226 66.9866 50.662 66.976ZM48 72H54C54.6204 72.0006 55.2255 72.1931 55.7322 72.5512C56.2389 72.9092 56.6224 73.4153 56.83 74H48V72ZM47 34H62.5C62.8978 34 63.2794 34.158 63.5607 34.4393C63.842 34.7206 64 35.1022 64 35.5C64 35.8978 63.842 36.2794 63.5607 36.5607C63.2794 36.842 62.8978 37 62.5 37H44.414L42.416 35.002L45.074 32.355L46.257 33.669C46.3507 33.7731 46.4653 33.8564 46.5933 33.9135C46.7213 33.9705 46.8599 34 47 34ZM48 12H31V10H50.83C50.6224 10.5847 50.2389 11.0908 49.7322 11.4488C49.2255 11.8069 48.6204 11.9994 48 12ZM31 7C31 5.67392 31.5268 4.40215 32.4645 3.46447C33.4021 2.52678 34.6739 2 36 2C37.3261 2 38.5979 2.52678 39.5355 3.46447C40.4732 4.40215 41 5.67392 41 7V8H31V7ZM31 17V14H41V17C41 18.3261 40.4732 19.5979 39.5355 20.5355C38.5979 21.4732 37.3261 22 36 22C34.6739 22 33.4021 21.4732 32.4645 20.5355C31.5268 19.5979 31 18.3261 31 17ZM28.88 27.534L32.414 24H37.554L43.734 30.866L41 33.587L38.706 31.293C38.5174 31.1108 38.2648 31.01 38.0026 31.0123C37.7404 31.0146 37.4896 31.1198 37.3042 31.3052C37.1188 31.4906 37.0136 31.7414 37.0113 32.0036C37.009 32.2658 37.1098 32.5184 37.292 32.707L39.842 35.257L36.3 45H23.364L28.88 27.534ZM23 47H41.001C41.9508 46.9978 42.8766 47.2986 43.6438 47.8586C44.411 48.4186 44.9796 49.2087 45.267 50.114L50.03 65H46.153L41.953 51.699C41.8892 51.4963 41.7623 51.3192 41.591 51.1935C41.4196 51.0677 41.2125 51 41 51H23V47ZM19 25H15V23H19V25ZM13 27.131L11.555 26.168C11.3907 26.0584 11.1975 25.9999 11 25.9999C10.8025 25.9999 10.6093 26.0584 10.445 26.168L9 27.131V23H13V27.131ZM3 23H7V25H3V23ZM3 27H7V29C6.99997 29.181 7.0491 29.3587 7.14213 29.514C7.23516 29.6693 7.36861 29.7965 7.52823 29.8819C7.68786 29.9673 7.86769 30.0078 8.04852 29.999C8.22935 29.9902 8.4044 29.9325 8.555 29.832L11 28.202L13.445 29.832C13.5956 29.9325 13.7707 29.9902 13.9515 29.999C14.1323 30.0078 14.3121 29.9673 14.4718 29.8819C14.6314 29.7965 14.7648 29.6693 14.8579 29.514C14.9509 29.3587 15 29.181 15 29V27H19V37H3V27ZM15 39V51H11.66L6.515 39H15ZM6 64C6.00159 62.6744 6.52888 61.4036 7.46622 60.4662C8.40356 59.5289 9.6744 59.0016 11 59H34.252L39.041 75.282C39.1019 75.4892 39.2282 75.6711 39.4011 75.8005C39.5739 75.9299 39.7841 75.9999 40 76H62.01C63.01 76 63.01 75.076 63.012 74.402L63.014 72.723L63.01 38.963C63.7128 38.8563 64.3669 38.5396 64.8866 38.0546C65.4062 37.5696 65.7672 36.9388 65.922 36.245C66.2478 36.4206 66.5201 36.6811 66.7099 36.9989C66.8997 37.3166 66.9999 37.6799 67 38.05V55C67.0021 56.8559 67.7403 58.6351 69.0526 59.9474C70.3649 61.2597 72.1441 61.9979 74 62H76V78H22V73C22 72.7348 21.8946 72.4804 21.7071 72.2929C21.5196 72.1054 21.2652 72 21 72H6V64ZM75.83 80C75.6234 80.5855 75.2403 81.0926 74.7334 81.4512C74.2265 81.8099 73.6209 82.0024 73 82.0024C72.3791 82.0024 71.7735 81.8099 71.2666 81.4512C70.7597 81.0926 70.3766 80.5855 70.17 80H75.83ZM23.83 80C23.6234 80.5855 23.2403 81.0926 22.7334 81.4512C22.2265 81.8099 21.6209 82.0024 21 82.0024C20.3791 82.0024 19.7735 81.8099 19.2666 81.4512C18.7597 81.0926 18.3766 80.5855 18.17 80H23.83ZM2.1 74H20V78H7C5.84775 77.9987 4.73117 77.6002 3.83857 76.8715C2.94596 76.1428 2.33192 75.1287 2.1 74ZM21 86C19.3172 85.9981 17.6912 85.3909 16.419 84.2893C15.1469 83.1877 14.3135 81.6653 14.071 80H16.101C16.3315 81.1292 16.945 82.1441 17.8377 82.8731C18.7304 83.602 19.8475 84.0001 21 84.0001C22.1525 84.0001 23.2696 83.602 24.1623 82.8731C25.055 82.1441 25.6685 81.1292 25.899 80H27.929C27.6865 81.6653 26.8531 83.1877 25.581 84.2893C24.3088 85.3909 22.6828 85.9981 21 86ZM73 86C71.3172 85.9981 69.6912 85.3909 68.419 84.2893C67.1469 83.1877 66.3135 81.6653 66.071 80H68.101C68.3315 81.1292 68.945 82.1441 69.8377 82.8731C70.7304 83.602 71.8475 84.0001 73 84.0001C74.1525 84.0001 75.2696 83.602 76.1623 82.8731C77.055 82.1441 77.6685 81.1292 77.899 80H79.929C79.6865 81.6653 78.8531 83.1877 77.581 84.2893C76.3088 85.3909 74.6828 85.9981 73 86ZM78 78V68.415C80.1431 69.0146 82.0526 70.2532 83.4738 71.9656C84.8951 73.6781 85.7606 75.7831 85.955 78H78ZM83 42H87C87.2652 42 87.5196 41.8946 87.7071 41.7071C87.8946 41.5196 88 41.2652 88 41C88 40.7348 87.8946 40.4804 87.7071 40.2929C87.5196 40.1054 87.2652 40 87 40H83C82.7348 40 82.4804 40.1054 82.2929 40.2929C82.1054 40.4804 82 40.7348 82 41C82 41.2652 82.1054 41.5196 82.2929 41.7071C82.4804 41.8946 82.7348 42 83 42ZM83.555 37.832L86.555 35.832C86.6643 35.7591 86.7581 35.6654 86.8311 35.5563C86.9042 35.4471 86.955 35.3247 86.9808 35.1959C87.0065 35.0671 87.0066 34.9345 86.9811 34.8056C86.9555 34.6768 86.9049 34.5543 86.832 34.445C86.7591 34.3357 86.6654 34.2419 86.5563 34.1689C86.4471 34.0958 86.3247 34.045 86.1959 34.0192C86.0671 33.9935 85.9345 33.9934 85.8056 34.0189C85.6768 34.0445 85.5543 34.0951 85.445 34.168L82.445 36.168C82.3357 36.2409 82.2419 36.3346 82.1689 36.4437C82.0958 36.5529 82.045 36.6753 82.0192 36.8041C81.9935 36.9329 81.9934 37.0655 82.0189 37.1944C82.0445 37.3232 82.0951 37.4457 82.168 37.555C82.2409 37.6643 82.3346 37.7581 82.4437 37.8311C82.5529 37.9042 82.6753 37.955 82.8041 37.9808C82.9329 38.0065 83.0655 38.0066 83.1944 37.9811C83.3232 37.9555 83.4457 37.9049 83.555 37.832ZM82.168 44.445C82.0951 44.5543 82.0444 44.6768 82.0189 44.8056C81.9934 44.9345 81.9935 45.0671 82.0192 45.1959C82.0449 45.3247 82.0958 45.4472 82.1688 45.5563C82.2419 45.6654 82.3357 45.7591 82.445 45.832L85.445 47.832C85.6657 47.9792 85.9358 48.0327 86.1959 47.9808C86.456 47.9288 86.6848 47.7757 86.832 47.555C86.9792 47.3343 87.0327 47.0642 86.9808 46.8041C86.9288 46.544 86.7757 46.3152 86.555 46.168L83.555 44.168C83.4458 44.095 83.3232 44.0442 83.1944 44.0186C83.0655 43.993 82.9329 43.9931 82.804 44.0188C82.6752 44.0445 82.5527 44.0954 82.4436 44.1685C82.3344 44.2417 82.2408 44.3356 82.168 44.445Z" fill="white"/>
</g>
<defs>
<clipPath id="clip0_52_5">
<rect width="88" height="88" fill="white"/>
</clipPath>
</defs>
</svg>
