<svg width="27" height="27" viewBox="0 0 27 27" fill="none" xmlns="http://www.w3.org/2000/svg">
<g clip-path="url(#clip0_289_24)">
<path d="M20.988 1.04624L7.27202 14.7622C6.74816 15.2833 6.33285 15.9031 6.05014 16.5857C5.76743 17.2683 5.62294 18.0003 5.62502 18.7391V20.25C5.62502 20.5484 5.74355 20.8345 5.95453 21.0455C6.16551 21.2565 6.45165 21.375 6.75002 21.375H8.2609C8.99976 21.3771 9.73169 21.2326 10.4143 20.9499C11.097 20.6672 11.7167 20.2519 12.2378 19.728L25.9538 6.01199C26.6112 5.35293 26.9804 4.46002 26.9804 3.52911C26.9804 2.59821 26.6112 1.7053 25.9538 1.04624C25.2852 0.40712 24.3958 0.0504456 23.4709 0.0504456C22.546 0.0504456 21.6566 0.40712 20.988 1.04624ZM24.363 4.42124L10.647 18.1372C10.0127 18.7677 9.15528 19.1226 8.2609 19.125H7.87502V18.7391C7.87737 17.8447 8.23229 16.9873 8.86277 16.353L22.5788 2.63699C22.8191 2.40744 23.1386 2.27934 23.4709 2.27934C23.8032 2.27934 24.1227 2.40744 24.363 2.63699C24.5992 2.87382 24.7318 3.19464 24.7318 3.52911C24.7318 3.86359 24.5992 4.18441 24.363 4.42124Z" fill="black"/>
<path d="M25.875 10.1014C25.5766 10.1014 25.2905 10.2199 25.0795 10.4309C24.8685 10.6419 24.75 10.928 24.75 11.2264V16.875H20.25C19.3549 16.875 18.4965 17.2306 17.8635 17.8635C17.2306 18.4965 16.875 19.3549 16.875 20.25V24.75H5.625C4.72989 24.75 3.87145 24.3944 3.23852 23.7615C2.60558 23.1286 2.25 22.2701 2.25 21.375V5.625C2.25 4.72989 2.60558 3.87145 3.23852 3.23852C3.87145 2.60558 4.72989 2.25 5.625 2.25H15.7973C16.0956 2.25 16.3818 2.13147 16.5927 1.9205C16.8037 1.70952 16.9223 1.42337 16.9223 1.125C16.9223 0.826632 16.8037 0.540483 16.5927 0.329505C16.3818 0.118526 16.0956 0 15.7973 0L5.625 0C4.13371 0.00178634 2.704 0.594992 1.6495 1.6495C0.594992 2.704 0.00178634 4.13371 0 5.625L0 21.375C0.00178634 22.8663 0.594992 24.296 1.6495 25.3505C2.704 26.405 4.13371 26.9982 5.625 27H18.3859C19.1249 27.0021 19.857 26.8576 20.5398 26.5749C21.2227 26.2922 21.8426 25.8769 22.3639 25.353L25.3519 22.3628C25.8758 21.8417 26.2913 21.222 26.5742 20.5394C26.8571 19.8567 27.0018 19.1248 27 18.3859V11.2264C27 10.928 26.8815 10.6419 26.6705 10.4309C26.4595 10.2199 26.1734 10.1014 25.875 10.1014ZM20.7731 23.7623C20.3209 24.2134 19.749 24.5257 19.125 24.6623V20.25C19.125 19.9516 19.2435 19.6655 19.4545 19.4545C19.6655 19.2435 19.9516 19.125 20.25 19.125H24.6656C24.5265 19.7477 24.2145 20.3185 23.7656 20.772L20.7731 23.7623Z" fill="black"/>
</g>
<defs>
<clipPath id="clip0_289_24">
<rect width="27" height="27" fill="white"/>
</clipPath>
</defs>
</svg>
