<svg width="24" height="24" viewBox="0 0 24 24" fill="none" xmlns="http://www.w3.org/2000/svg">
<g clip-path="url(#clip0_287_2)">
<path d="M6.2928 8C8.2668 8 9.9168 6.721 10.3918 5H22.9988C23.5508 5 23.9988 4.553 23.9988 4C23.9988 3.447 23.5508 3 22.9988 3H10.3918C9.9168 1.279 8.2668 0 6.2928 0C4.1318 0 -0.000198975 1.558 -0.000198975 4C-0.000198975 6.442 4.1318 8 6.2928 8ZM6.2928 2C7.5338 2 8.5428 2.897 8.5428 4C8.5428 5.103 7.5338 6 6.2928 6C4.5658 6 1.9998 4.688 1.9998 4C1.9998 3.312 4.5658 2 6.2928 2ZM23.3268 12.498C22.6128 11.546 21.5208 11 20.3298 11H3.6688C2.4788 11 1.3858 11.546 0.671801 12.498C-0.048199 13.459 -0.267199 14.672 0.069801 15.827C0.721801 18.06 1.9038 20.075 3.4888 21.653C4.9868 23.144 7.1018 24 9.2938 24H14.7048C16.8958 24 19.0118 23.145 20.5098 21.653C22.0948 20.075 23.2768 18.06 23.9288 15.827C24.2658 14.672 24.0468 13.459 23.3268 12.498ZM22.0088 15.267C21.4588 17.15 20.4258 18.914 19.0978 20.236C17.9718 21.358 16.3708 22.001 14.7038 22.001H9.2928C7.6258 22.001 6.0248 21.358 4.8988 20.236C3.5718 18.915 2.5378 17.15 1.9878 15.267C1.8288 14.722 1.9308 14.15 2.2698 13.699C2.6028 13.256 3.1118 13.001 3.6658 13.001H20.3278C20.8828 13.001 21.3918 13.256 21.7238 13.699C22.0628 14.15 22.1648 14.722 22.0058 15.267H22.0088Z" fill="black"/>
</g>
<defs>
<clipPath id="clip0_287_2">
<rect width="24" height="24" fill="white"/>
</clipPath>
</defs>
</svg>
