<svg width="25" height="25" viewBox="0 0 25 25" fill="none" xmlns="http://www.w3.org/2000/svg">
<path d="M9.37561 6.77131C9.37561 5.90888 10.0755 5.20894 10.9378 5.20894C11.8001 5.20894 12.5 5.90888 12.5 6.77131C12.5 7.63374 11.8001 8.33368 10.9378 8.33368C10.0755 8.33368 9.37561 7.63374 9.37561 6.77131ZM24.8268 15.782C24.0915 18.3026 22.7563 20.5775 20.9661 22.3606C19.281 24.0376 16.9023 25 14.4371 25H10.5608C8.09669 25 5.71799 24.0376 4.03291 22.3617C2.24367 20.5785 0.908516 18.3037 0.172201 15.782C-0.202725 14.4988 0.0409769 13.151 0.840821 12.0834C1.197 11.6084 1.63754 11.2251 2.13536 10.946C2.10307 10.7262 2.08641 10.5043 2.08641 10.2794C2.08641 8.71594 2.88521 7.30772 4.17767 6.49946C4.17142 6.41509 4.1683 6.33281 4.1683 6.25156C4.1683 3.80281 6.30642 1.80818 8.78927 2.11232C9.56203 0.819723 10.9576 0 12.501 0C14.0445 0 15.4401 0.818682 16.2128 2.11128C18.6238 1.82381 20.738 3.71636 20.8296 6.08908C22.1169 6.90255 22.9157 8.31493 22.9157 9.86376C22.9157 10.2148 22.873 10.5647 22.7928 10.9053C23.3198 11.1876 23.7853 11.5855 24.1592 12.0823C24.959 13.1489 25.2027 14.4967 24.8278 15.781L24.8268 15.782ZM4.16934 10.2783C4.16934 10.3252 4.17142 10.371 4.1735 10.4179H13.6258C13.5665 10.2523 13.5342 10.0742 13.5342 9.88876C13.5342 9.02633 14.234 8.32639 15.0964 8.32639C15.9587 8.32639 16.6586 9.02633 16.6586 9.88876C16.6586 10.0742 16.6263 10.2523 16.5669 10.4179H20.7692C20.8109 10.2387 20.8327 10.0533 20.8327 9.8648C20.8327 8.90134 20.2485 8.03475 19.3445 7.6577C18.906 7.47438 18.6467 7.01712 18.7155 6.54633C18.7332 6.42655 18.7488 6.34114 18.7488 6.25156C18.7488 5.1027 17.8146 4.1684 16.6659 4.1684C16.4471 4.1684 16.2201 4.21111 15.9743 4.2986C15.7108 4.39338 15.4192 4.37672 15.1682 4.25381C14.9162 4.13091 14.7235 3.91113 14.636 3.64449C14.3267 2.71123 13.4696 2.0842 12.5 2.0842C11.5304 2.0842 10.6722 2.71227 10.3629 3.64553C10.2744 3.91217 10.0828 4.13091 9.83073 4.25381C9.5787 4.37672 9.28709 4.39338 9.02464 4.2986C8.77885 4.21111 8.55181 4.1684 8.33311 4.1684C7.18437 4.1684 6.25018 5.1027 6.25018 6.25156C6.25018 6.41092 6.27726 6.58591 6.33766 6.80256C6.48034 7.31814 6.20852 7.85768 5.70966 8.05037C4.77339 8.41284 4.1683 9.28777 4.1683 10.2794L4.16934 10.2783ZM22.4918 13.3333C22.096 12.8041 21.4899 12.501 20.8286 12.501H4.17038C3.51009 12.501 2.90396 12.8041 2.5082 13.3322C2.10516 13.8697 1.98331 14.5498 2.17285 15.1977C2.8019 17.3517 3.98396 19.3723 5.50449 20.8847C6.80007 22.1763 8.6445 22.9168 10.5608 22.9168H14.4371C16.3545 22.9168 18.1978 22.1763 19.4955 20.8847C21.015 19.3703 22.1981 17.3506 22.8261 15.1977C23.0157 14.5498 22.8938 13.8697 22.4918 13.3333Z" fill="black"/>
</svg>
