<svg xmlns="http://www.w3.org/2000/svg" width="89.047" height="89.047" viewBox="0 0 89.047 89.047" data-v-5b7f92a0=""><g transform="translate(-328.173 -841.165)"><path d="M353.329,857.467a8.854,8.854,0,1,0,8.853,8.855A8.863,8.863,0,0,0,353.329,857.467Z" transform="translate(19.369 19.368)" fill="#fff"></path> <path d="M369.851,851.755H350.379a11.631,11.631,0,0,0-11.616,11.616v19.471a11.631,11.631,0,0,0,11.616,11.616h19.471a11.629,11.629,0,0,0,11.616-11.616V863.371A11.629,11.629,0,0,0,369.851,851.755Zm-9.735,34.057a12.7,12.7,0,1,1,12.7-12.7A12.72,12.72,0,0,1,360.116,885.812ZM374.2,862.328a3.307,3.307,0,1,1,3.308-3.306A3.308,3.308,0,0,1,374.2,862.328Z" transform="translate(12.581 12.581)" fill="#fff"></path> <path d="M372.7,841.165h0a44.525,44.525,0,0,0-44.525,44.525h0A44.524,44.524,0,0,0,372.7,930.212h0A44.522,44.522,0,0,0,417.22,885.69h0A44.523,44.523,0,0,0,372.7,841.165Zm25.112,54.259A15.4,15.4,0,0,1,382.432,910.8H362.961a15.394,15.394,0,0,1-15.375-15.378V875.953a15.392,15.392,0,0,1,15.375-15.375h19.471a15.394,15.394,0,0,1,15.378,15.375Z" transform="translate(0 0)" fill="#fff"></path></g></svg>