<svg width="25" height="25" viewBox="0 0 25 25" fill="none" xmlns="http://www.w3.org/2000/svg">
<g clip-path="url(#clip0_333_213)">
<path d="M25 8.33333C25 8.23646 24.9865 8.13958 24.9604 8.04688L23.7396 3.77708C23.1042 1.55312 21.0437 0 18.7312 0H6.26771C3.95521 0 1.89583 1.55312 1.25937 3.77708L0.040625 8.04688C0.0145833 8.13958 0 8.23646 0 8.33333C0 9.3875 0.39375 10.351 1.04167 11.0865V20.8333C1.04167 23.1312 2.91042 25 5.20833 25H11.4583C13.7562 25 15.625 23.1312 15.625 20.8333V11.9406C16.0167 11.7135 16.3687 11.424 16.6667 11.0865C17.4302 11.9531 18.5479 12.5 19.7917 12.5H20.8333C21.1927 12.5 21.5417 12.4542 21.875 12.3677V23.9583C21.875 24.5333 22.3406 25 22.9167 25C23.4927 25 23.9583 24.5333 23.9583 23.9583V11.0865C24.6062 10.3521 25 9.3875 25 8.33333ZM11.4583 22.9167H5.20833C4.05937 22.9167 3.125 21.9823 3.125 20.8333V18.75H13.5417V20.8333C13.5417 21.9823 12.6073 22.9167 11.4583 22.9167ZM13.5417 16.6667H3.125V12.3677C3.45833 12.4542 3.80729 12.5 4.16667 12.5H5.20833C6.45208 12.5 7.56875 11.9521 8.33333 11.0865C9.09792 11.9531 10.2146 12.5 11.4583 12.5H13.5417V16.6667ZM19.7917 10.4167C18.6427 10.4167 17.7083 9.48229 17.7083 8.33333C17.7083 7.75833 17.2427 7.29167 16.6667 7.29167C16.0906 7.29167 15.625 7.75833 15.625 8.33333C15.625 9.48229 14.6906 10.4167 13.5417 10.4167H11.4583C10.3094 10.4167 9.375 9.48229 9.375 8.33333C9.375 7.75833 8.90833 7.29167 8.33333 7.29167C7.75833 7.29167 7.29167 7.75833 7.29167 8.33333C7.29167 9.48229 6.35729 10.4167 5.20833 10.4167H4.16667C3.65625 10.4167 3.1875 10.2312 2.825 9.92604C2.79479 9.89583 2.76354 9.86771 2.73021 9.84062C2.36146 9.48958 2.12083 9.00521 2.0875 8.46562L3.2625 4.35C3.64375 3.01562 4.87917 2.08333 6.26771 2.08333H7.29167V4.16667C7.29167 4.74167 7.75833 5.20833 8.33333 5.20833C8.90833 5.20833 9.375 4.74167 9.375 4.16667V2.08333H15.625V4.16667C15.625 4.74167 16.0906 5.20833 16.6667 5.20833C17.2427 5.20833 17.7083 4.74167 17.7083 4.16667V2.08333H18.7312C20.1187 2.08333 21.3552 3.01562 21.7365 4.35L22.9125 8.46562C22.8448 9.55312 21.9375 10.4177 20.8333 10.4177H19.7917V10.4167Z" fill="black"/>
</g>
<defs>
<clipPath id="clip0_333_213">
<rect width="25" height="25" fill="white"/>
</clipPath>
</defs>
</svg>
