<svg width="190" height="36" viewBox="0 0 190 36" fill="none" xmlns="http://www.w3.org/2000/svg">
<path d="M20.7372 1.88189L26.2864 1.40538L33.1867 19.8384L33.054 1.76728L42.4937 0.898712L39.3752 33.826L31.1238 33.1686L27.3962 21.847L22.4924 12.8416L22.2933 33.6632L14.3073 33.6451L15.9299 1.02538L20.7372 1.88189Z" fill="#D80904"/>
<path d="M46.4263 0.759983L45.8774 17.7032L45.22 33.4822L50.9682 34.1397L52.1203 21.1473L57.386 34.2905L64.7749 34.4533L56.4993 15.7368L67.5616 0.36792L58.8155 1.4657L52.9406 11.6413L53.1035 1.85173L46.4263 0.759983Z" fill="#D80904"/>
<path d="M79.6311 1.47172L72.2603 0.44632L64.9016 29.1755L68.973 34.779L73.3822 23.8797L79.7577 25.7374L82.3695 34.9539L89.8911 33.9165L79.6311 1.47172ZM74.0155 19.4704L75.6139 12.92L77.8095 19.8323L74.0155 19.4704Z" fill="#D80904"/>
<path d="M10.4952 33.7355L10.5736 9.1803L1.05554 10.7124L2.63586 34.2784L10.4952 33.7355Z" fill="#D80904"/>
<path d="M0.699682 8.98127L0 1.73714L3.47429 1.30889L4.14381 0L10.4651 0.434286L10.6883 8.18508L0.699682 8.98127Z" fill="#D80904"/>
<path d="M96.2908 10.5676H106.098V13.5172H100.181V20.9H104.826V23.8495H100.181V35.2495H96.2908V10.5676Z" fill="#020303"/>
<path d="M108.21 10.5676H112.1V32.294H117.402V35.2435H108.21V10.5676Z" fill="#020303"/>
<path d="M122.197 10.5676H126.673L131.42 35.2435H127.481L126.775 30.8222H122.089L121.413 35.2435H117.462L122.197 10.5676ZM126.329 28.0054L124.525 15.7127H124.363L122.547 28.0054H126.335H126.329Z" fill="#020303"/>
<path d="M131.498 10.5676H135.479L138.302 30.1105H138.465L141.306 10.5676H145.275L140.6 35.2435H136.155L131.498 10.5676Z" fill="#020303"/>
<path d="M152.941 35.4546C152.531 35.4546 152.084 35.4244 151.602 35.3581C151.119 35.2978 150.643 35.1651 150.172 34.96C149.702 34.7549 149.25 34.4714 148.815 34.0974C148.381 33.7295 147.995 33.2349 147.657 32.6317C147.319 32.0225 147.054 31.2746 146.855 30.3879C146.656 29.4952 146.553 28.4336 146.553 27.2032V18.4632C146.553 17.2206 146.656 16.159 146.861 15.2784C147.066 14.3978 147.337 13.6559 147.681 13.0527C148.019 12.4495 148.411 11.973 148.845 11.6171C149.28 11.2613 149.738 10.9898 150.215 10.8028C150.691 10.6159 151.162 10.4952 151.632 10.4349C152.103 10.3746 152.537 10.3505 152.941 10.3505C153.345 10.3505 153.743 10.3746 154.208 10.4289C154.672 10.4832 155.137 10.5978 155.607 10.7727C156.071 10.9536 156.524 11.213 156.964 11.5689C157.404 11.9187 157.797 12.3952 158.134 12.9984C158.472 13.6016 158.75 14.3495 158.955 15.2362C159.16 16.1289 159.262 17.2025 159.262 18.4632V27.2032C159.262 28.4276 159.16 29.4771 158.949 30.3578C158.737 31.2384 158.46 31.9863 158.122 32.5955C157.784 33.2047 157.386 33.6994 156.94 34.0673C156.494 34.4352 156.041 34.7247 155.571 34.9359C155.106 35.1409 154.642 35.2797 154.184 35.346C153.725 35.4124 153.309 35.4486 152.935 35.4486L152.941 35.4546ZM152.941 32.6378C153.321 32.6378 153.653 32.5774 153.942 32.4508C154.232 32.3241 154.461 32.107 154.648 31.7994C154.835 31.4917 154.974 31.0816 155.07 30.5809C155.167 30.0743 155.215 29.4349 155.215 28.6689V17.4438C155.215 16.6536 155.167 15.9962 155.07 15.4654C154.974 14.9346 154.835 14.5124 154.648 14.1867C154.461 13.867 154.226 13.6378 153.942 13.499C153.659 13.3663 153.321 13.294 152.941 13.294C152.561 13.294 152.211 13.3603 151.922 13.499C151.632 13.6317 151.391 13.8609 151.198 14.1867C151.005 14.5124 150.866 14.9346 150.77 15.4654C150.673 15.9962 150.625 16.6536 150.625 17.4438V28.6689C150.625 29.4409 150.673 30.0743 150.77 30.5809C150.866 31.0876 151.005 31.4917 151.198 31.7994C151.391 32.107 151.626 32.3241 151.922 32.4508C152.211 32.5774 152.555 32.6378 152.941 32.6378Z" fill="#020303"/>
<path d="M162.453 10.5676H166.675C167.158 10.5676 167.683 10.5857 168.262 10.6279C168.835 10.6641 169.414 10.7606 169.987 10.9114C170.56 11.0622 171.121 11.2854 171.651 11.581C172.188 11.8765 172.665 12.2867 173.081 12.8114C173.497 13.3302 173.829 13.9816 174.082 14.7718C174.336 15.5559 174.456 16.5089 174.456 17.6248V18.246C174.456 20.1219 174.173 21.654 173.618 22.8302C173.057 24.0124 172.231 24.8568 171.139 25.3816L175.252 35.2495H171.139L167.731 26.021H166.271V35.2495H162.453V10.5676ZM166.856 23.3067C167.538 23.3067 168.111 23.2343 168.581 23.0895C169.052 22.9448 169.432 22.7035 169.721 22.3597C170.011 22.0159 170.222 21.5635 170.355 21.0025C170.487 20.4416 170.548 19.7419 170.548 18.9156V16.9673C170.548 16.334 170.487 15.7851 170.367 15.3206C170.246 14.8562 170.041 14.4762 169.757 14.1806C169.474 13.8851 169.094 13.6619 168.624 13.5172C168.153 13.3724 167.562 13.3 166.85 13.3H166.265V23.3127H166.85L166.856 23.3067Z" fill="#020303"/>
<path d="M176.718 30.2432C176.718 29.7124 176.748 29.2238 176.815 28.7774C176.881 28.3311 176.977 27.8486 177.11 27.3238H180.132V28.5241C180.132 29.1876 180.174 29.7787 180.259 30.2854C180.343 30.7981 180.482 31.2263 180.681 31.5762C180.874 31.926 181.139 32.1914 181.465 32.3724C181.791 32.5533 182.189 32.6378 182.659 32.6378C183.401 32.6378 183.968 32.4447 184.354 32.0527C184.74 31.6606 184.939 31.0936 184.939 30.3397C184.939 29.9536 184.909 29.6038 184.855 29.2781C184.801 28.9584 184.704 28.6327 184.571 28.319C184.439 27.9994 184.252 27.6676 184.023 27.3178C183.793 26.9679 183.498 26.5759 183.136 26.1416L179.083 21.5032C178.359 20.6165 177.804 19.7238 177.418 18.8251C177.026 17.9263 176.833 16.9613 176.833 15.9419C176.833 15.1216 176.965 14.3736 177.231 13.686C177.496 13.0044 177.882 12.4133 178.383 11.9187C178.883 11.4241 179.505 11.0381 180.241 10.7606C180.977 10.4832 181.809 10.3505 182.744 10.3505C183.878 10.3505 184.819 10.5073 185.573 10.8149C186.327 11.1225 186.93 11.5267 187.382 12.0273C187.835 12.5279 188.148 13.0889 188.335 13.7101C188.522 14.3314 188.613 14.9527 188.613 15.58C188.613 16.1108 188.57 16.5994 188.486 17.0457C188.402 17.4921 188.305 17.9867 188.19 18.5235H185.187V17.3533C185.187 16.0444 184.994 15.0371 184.602 14.3435C184.21 13.6438 183.576 13.294 182.696 13.294C181.966 13.294 181.417 13.487 181.061 13.879C180.705 14.2711 180.518 14.7898 180.518 15.4473C180.518 15.7911 180.548 16.1048 180.603 16.3882C180.657 16.6657 180.735 16.9251 180.844 17.1603C180.946 17.3955 181.079 17.6248 181.23 17.8479C181.381 18.0711 181.55 18.3003 181.743 18.5416L186.266 23.8013C187.087 24.8327 187.72 25.8219 188.16 26.7689C188.601 27.7159 188.824 28.7232 188.824 29.7787C188.824 30.6533 188.679 31.4435 188.396 32.1492C188.112 32.8549 187.702 33.4521 187.171 33.9406C186.64 34.4292 186.001 34.8092 185.247 35.0746C184.493 35.34 183.649 35.4727 182.708 35.4727C181.544 35.4727 180.584 35.3219 179.818 35.0263C179.052 34.7308 178.443 34.3327 177.985 33.8441C177.526 33.3555 177.207 32.7946 177.026 32.1673C176.839 31.54 176.748 30.9006 176.748 30.2432H176.718Z" fill="#020303"/>
<path d="M155.691 8.11871L147.211 4.19808L138.73 8.11871L130.25 4.19808L121.769 8.11871L113.282 4.19808L104.802 8.11871L95.947 4.02316L96.701 2.39459L104.802 6.13427L113.282 2.21967L121.769 6.13427L130.25 2.21967L138.73 6.13427L147.211 2.21967L155.691 6.13427L164.172 2.21967L172.659 6.13427L181.139 2.21967L190 6.30919L189.246 7.94379L181.139 4.19808L172.659 8.11871L164.172 4.19808L155.691 8.11871Z" fill="#1D1D1B"/>
</svg>
