<svg xmlns="http://www.w3.org/2000/svg" width="62.944" height="30.843" viewBox="0 0 62.944 48.843" data-v-24e094ae=""><g transform="translate(-314.826 -1531.373)"><path d="M326.28,1580.108v-3.242a1.9,1.9,0,0,0-2.053-2.053,2.132,2.132,0,0,0-1.837.918,1.891,1.891,0,0,0-1.729-.918,1.746,1.746,0,0,0-1.513.756v-.648h-1.135v5.187h1.135v-2.864c0-.918.486-1.35,1.243-1.35s1.135.486,1.135,1.35v2.864h1.134v-2.864a1.2,1.2,0,0,1,1.243-1.35c.756,0,1.134.486,1.134,1.35v2.864Zm16.8-5.187h-1.837v-1.567h-1.134v1.567h-1.027v1.026h1.027v2.378c0,1.188.486,1.891,1.783,1.891a3.021,3.021,0,0,0,1.4-.378l-.324-.973a1.776,1.776,0,0,1-.972.27c-.541,0-.757-.324-.757-.864v-2.324h1.837v-1.026Zm9.617-.108a1.522,1.522,0,0,0-1.35.756v-.648h-1.135v5.187h1.135v-2.918c0-.864.378-1.351,1.08-1.351a3.221,3.221,0,0,1,.7.108l.324-1.08a3.573,3.573,0,0,0-.757-.054Zm-14.533.54a3.713,3.713,0,0,0-2.108-.54c-1.3,0-2.161.648-2.161,1.675,0,.864.649,1.351,1.783,1.513l.541.054c.594.108.918.27.918.54,0,.378-.432.648-1.189.648a2.987,2.987,0,0,1-1.729-.54l-.54.864a3.815,3.815,0,0,0,2.215.649c1.513,0,2.378-.7,2.378-1.675,0-.919-.7-1.405-1.783-1.567l-.541-.054c-.486-.054-.864-.162-.864-.486,0-.378.378-.595.972-.595a3.892,3.892,0,0,1,1.621.433l.487-.919Zm30.148-.54a1.525,1.525,0,0,0-1.351.756v-.648H365.83v5.187h1.134v-2.918c0-.864.379-1.351,1.081-1.351a3.221,3.221,0,0,1,.7.108l.324-1.08a3.568,3.568,0,0,0-.756-.054Zm-14.48,2.7a2.6,2.6,0,0,0,2.756,2.7,2.691,2.691,0,0,0,1.837-.594l-.541-.919a2.182,2.182,0,0,1-1.35.486,1.534,1.534,0,0,1-1.567-1.675,1.6,1.6,0,0,1,1.567-1.675,2.183,2.183,0,0,1,1.35.487l.541-.919a2.691,2.691,0,0,0-1.837-.594,2.6,2.6,0,0,0-2.756,2.7Zm10.482,0v-2.593h-1.135v.648a1.952,1.952,0,0,0-1.621-.756,2.7,2.7,0,0,0,0,5.4,1.816,1.816,0,0,0,1.621-.757v.649h1.135Zm-4.16,0a1.57,1.57,0,1,1,3.133,0,1.57,1.57,0,1,1-3.133,0Zm-13.562-2.7a2.7,2.7,0,0,0,.054,5.4,3.3,3.3,0,0,0,2.107-.7l-.54-.81a2.581,2.581,0,0,1-1.513.54,1.458,1.458,0,0,1-1.567-1.242h3.836v-.433a2.386,2.386,0,0,0-2.377-2.755Zm0,.972a1.264,1.264,0,0,1,1.3,1.243h-2.7a1.369,1.369,0,0,1,1.4-1.243Zm28.15,1.729v-4.646H373.61v2.7a1.953,1.953,0,0,0-1.621-.756,2.7,2.7,0,0,0,0,5.4,1.816,1.816,0,0,0,1.621-.757v.649h1.135Zm-4.161,0a1.57,1.57,0,1,1,3.134,0,1.57,1.57,0,1,1-3.134,0Zm-37.928,0v-2.593h-1.135v.648a1.953,1.953,0,0,0-1.621-.756,2.7,2.7,0,0,0,0,5.4,1.817,1.817,0,0,0,1.621-.757v.649h1.135Zm-4.215,0a1.57,1.57,0,1,1,3.134,0,1.57,1.57,0,1,1-3.134,0Z"></path> <rect width="17.019" height="30.581" transform="translate(337.788 1535.533)" fill="#ff5f00"></rect> <path d="M338.869,1550.824a19.5,19.5,0,0,1,7.4-15.291,19.451,19.451,0,1,0,0,30.581A19.423,19.423,0,0,1,338.869,1550.824Z" fill="#eb001b"></path> <path d="M377.77,1550.824a19.43,19.43,0,0,1-31.445,15.29,19.494,19.494,0,0,0,0-30.581,19.43,19.43,0,0,1,31.445,15.291Z" fill="#f79e1b"></path></g></svg>