<svg width="120" height="50" viewBox="0 0 120 50" fill="none" xmlns="http://www.w3.org/2000/svg">
<path d="M16.29 29.81L17.42 24.96L18.36 29.81H16.29ZM7.57 25.52C7.57 26.89 7 27.83 5.36 28.35V24.2C5.69 24.11 6.02 24.01 6.35 24.01C7.24 24.01 7.57 24.72 7.57 25.52ZM41.55 28.91L42.87 22.97L44.1 28.91H41.55ZM30.47 20.43C31.88 20.43 32.4 21.18 32.4 22.46C32.4 23.83 31.69 25 30.14 25.43V20.43H30.47ZM113.56 25.02C113.56 24.61 113.86 24.38 114.4 24.38C115.4 24.38 117.17 25.42 118.28 26.27V22.08C116.96 21.18 115.37 20.53 113.61 20.53C110.77 20.53 109 22.21 109 25.08C109 29.98 114.42 30 114.42 31.64C114.42 32.14 114.12 32.4 113.34 32.4C111.74 32.4 109.69 31.31 109 30.66V35.09C110.31 35.86 112.2 36.32 113.84 36.32C117.12 36.32 119 34.49 119 31.58C118.98 26.8 113.56 26.58 113.56 25.02ZM12.14 24.91C12.14 21.47 10.02 20.1 7.19 20.1C5.3 20.1 3.09 20.71 1.02 21.7V35.89H5.36V32.5C8.98 31.79 12.14 29.05 12.14 24.91ZM70.82 19.3C72.8 19.3 73.74 21.37 73.74 25C73.74 28.63 72.8 30.7 70.82 30.7C68.84 30.7 67.9 28.63 67.9 25C67.89 21.37 68.84 19.3 70.82 19.3ZM9.93 35.89H14.55L15.21 33.58H19.22L19.79 35.89H24.64L19.69 17.27C18.28 17.41 16.72 17.65 15.54 17.98L9.93 35.89ZM98.67 17.13C97.49 16.89 96.17 16.66 95.23 16.56V35.88H99.66V27.92L104.37 35.88H107.76V19.01C106.35 18.63 104.98 18.35 103.52 18.07V26.36L98.67 17.13ZM37.36 22.03C37.36 17.98 35.1 15.71 30.39 15.71C28.88 15.71 26.86 15.95 25.25 16.42V35.88H30.15V30.65C34.29 29.38 37.36 26.37 37.36 22.03ZM85.14 23.77V15.33C83.91 15.09 81.42 14.86 80.19 14.81V35.88H85.14V28.34H88.39V35.88H93.34V16.33C91.78 16.05 89.9 15.81 88.39 15.67V23.78H85.14V23.77ZM34.62 35.89H39.71L40.46 32.97H45.03L45.88 35.89H51.06L45.22 14.49C43.99 14.49 41.97 14.63 40.84 14.77L34.62 35.89ZM56.39 29.81C56.39 30.99 55.73 31.51 54.74 31.51C54.22 31.51 53.66 31.37 53.04 31.13V35.94C54.03 36.27 54.78 36.32 55.82 36.32C58.69 36.32 61.48 34.86 61.48 30.15V14.02C60.07 13.93 57.8 13.93 56.39 14.02V29.81ZM70.82 36.31C75.86 36.31 78.97 31.88 78.97 25C78.97 18.73 76.28 13.69 70.68 13.69C65.73 13.69 62.67 18.21 62.67 25C62.66 32.35 65.77 36.31 70.82 36.31Z" fill="white"/>
</svg>
