<svg version="1.1" id="Layer_1" xmlns="http://www.w3.org/2000/svg" xmlns:xlink="http://www.w3.org/1999/xlink" x="0px" y="0px" viewBox="0 0 120 50" xml:space="preserve" style="enable-background:new 0 0 120 50;" data-v-601fd046=""><g><g><path d="M16.29,29.81l1.13-4.85l0.94,4.85H16.29z M7.57,25.52c0,1.37-0.57,2.31-2.21,2.83V24.2
                c0.33-0.09,0.66-0.19,0.99-0.19C7.24,24.01,7.57,24.72,7.57,25.52z M41.55,28.91l1.32-5.94l1.23,5.94H41.55z M30.47,20.43
                c1.41,0,1.93,0.75,1.93,2.03c0,1.37-0.71,2.54-2.26,2.97v-5H30.47z M113.56,25.02c0-0.41,0.3-0.64,0.84-0.64
                c1,0,2.77,1.04,3.88,1.89v-4.19c-1.32-0.9-2.91-1.55-4.67-1.55c-2.84,0-4.61,1.68-4.61,4.55c0,4.9,5.42,4.92,5.42,6.56
                c0,0.5-0.3,0.76-1.08,0.76c-1.6,0-3.65-1.09-4.34-1.74v4.43c1.31,0.77,3.2,1.23,4.84,1.23c3.28,0,5.16-1.83,5.16-4.74
                C118.98,26.8,113.56,26.58,113.56,25.02z M12.14,24.91c0-3.44-2.12-4.81-4.95-4.81c-1.89,0-4.1,0.61-6.17,1.6v14.19h4.34v-3.39
                C8.98,31.79,12.14,29.05,12.14,24.91z M70.82,19.3c1.98,0,2.92,2.07,2.92,5.7c0,3.63-0.94,5.7-2.92,5.7s-2.92-2.07-2.92-5.7
                C67.89,21.37,68.84,19.3,70.82,19.3z M9.93,35.89h4.62l0.66-2.31h4.01l0.57,2.31h4.85l-4.95-18.62c-1.41,0.14-2.97,0.38-4.15,0.71
                L9.93,35.89z M98.67,17.13c-1.18-0.24-2.5-0.47-3.44-0.57v19.32h4.43v-7.96l4.71,7.96h3.39V19.01c-1.41-0.38-2.78-0.66-4.24-0.94
                v8.29L98.67,17.13z M37.36,22.03c0-4.05-2.26-6.32-6.97-6.32c-1.51,0-3.53,0.24-5.14,0.71v19.46h4.9v-5.23
                C34.29,29.38,37.36,26.37,37.36,22.03z M85.14,23.77v-8.44c-1.23-0.24-3.72-0.47-4.95-0.52v21.07h4.95v-7.54h3.25v7.54h4.95V16.33
                c-1.56-0.28-3.44-0.52-4.95-0.66v8.11H85.14z M34.62,35.89h5.09l0.75-2.92h4.57l0.85,2.92h5.18l-5.84-21.4
                c-1.23,0-3.25,0.14-4.38,0.28L34.62,35.89z M56.39,29.81c0,1.18-0.66,1.7-1.65,1.7c-0.52,0-1.08-0.14-1.7-0.38v4.81
                c0.99,0.33,1.74,0.38,2.78,0.38c2.87,0,5.66-1.46,5.66-6.17V14.02c-1.41-0.09-3.68-0.09-5.09,0V29.81z M70.82,36.31
                c5.04,0,8.15-4.43,8.15-11.31c0-6.27-2.69-11.31-8.29-11.31c-4.95,0-8.01,4.52-8.01,11.31C62.66,32.35,65.77,36.31,70.82,36.31z" class="st0" style="fill:#FF0000"></path></g></g> <g class="st1" style="display: none"><g class="st2" style="display: inline"><path d="M645.25,25.24c0,5.03-1.8,9.31-5.41,12.84c-3.6,3.53-7.97,5.29-13.11,5.29s-9.49-1.75-13.07-5.25
                c-3.58-3.5-5.37-7.77-5.37-12.8c0-5.03,1.8-9.31,5.41-12.84c3.6-3.53,7.95-5.29,13.03-5.29c5.13,0,9.5,1.75,13.11,5.25
                C643.45,15.94,645.25,20.21,645.25,25.24z M643.07,25.32c0-4.62-1.57-8.47-4.71-11.55s-7.04-4.63-11.71-4.63
                c-4.56,0-8.4,1.56-11.51,4.67c-3.11,3.11-4.67,6.95-4.67,11.51s1.56,8.38,4.67,11.44c3.11,3.06,7,4.59,11.67,4.59
                c4.56,0,8.41-1.54,11.55-4.63S643.07,29.83,643.07,25.32z M637.86,35.2h-6.46l-5.6-6.92h-1.48v6.92h-5.45V14.35h7.86
                c2.8,0,4.97,0.6,6.5,1.79c1.53,1.19,2.3,2.88,2.3,5.06c0,1.35-0.36,2.56-1.09,3.62c-0.73,1.06-1.76,1.88-3.11,2.45L637.86,35.2z
                M626.35,18.47h-2.02v6.07h1.87c1.19,0,2.11-0.27,2.76-0.82c0.65-0.54,0.97-1.28,0.97-2.22c0-0.93-0.31-1.67-0.93-2.22
                C628.37,18.74,627.49,18.47,626.35,18.47z" class="st0"></path></g></g></svg>