<svg width="25" height="25" viewBox="0 0 25 25" fill="none" xmlns="http://www.w3.org/2000/svg">
<g clip-path="url(#clip0_289_18)">
<path d="M16.6667 0H8.33333C5.46146 0 3.125 2.33646 3.125 5.20833V19.7917C3.125 22.6635 5.46146 25 8.33333 25H16.6667C19.5385 25 21.875 22.6635 21.875 19.7917V5.20833C21.875 2.33646 19.5385 0 16.6667 0ZM19.7917 19.7917C19.7917 21.5146 18.3896 22.9167 16.6667 22.9167H8.33333C6.61042 22.9167 5.20833 21.5146 5.20833 19.7917V5.20833C5.20833 3.48542 6.61042 2.08333 8.33333 2.08333H16.6667C18.3896 2.08333 19.7917 3.48542 19.7917 5.20833V19.7917ZM17.7083 6.25C17.7083 6.82604 17.2427 7.29167 16.6667 7.29167H8.33333C7.75729 7.29167 7.29167 6.82604 7.29167 6.25C7.29167 5.67396 7.75729 5.20833 8.33333 5.20833H16.6667C17.2427 5.20833 17.7083 5.67396 17.7083 6.25ZM17.7083 11.4583C17.7083 12.0344 17.2427 12.5 16.6667 12.5H8.33333C7.75729 12.5 7.29167 12.0344 7.29167 11.4583C7.29167 10.8823 7.75729 10.4167 8.33333 10.4167H16.6667C17.2427 10.4167 17.7083 10.8823 17.7083 11.4583ZM13.5417 16.6667C13.5417 17.2427 13.076 17.7083 12.5 17.7083H8.33333C7.75729 17.7083 7.29167 17.2427 7.29167 16.6667C7.29167 16.0906 7.75729 15.625 8.33333 15.625H12.5C13.076 15.625 13.5417 16.0906 13.5417 16.6667Z" fill="white"/>
</g>
<defs>
<clipPath id="clip0_289_18">
<rect width="25" height="25" fill="white"/>
</clipPath>
</defs>
</svg>
