<svg width="24" height="24" viewBox="0 0 24 24" fill="none" xmlns="http://www.w3.org/2000/svg">
<g clip-path="url(#clip0_331_204)">
<path d="M24 1V7C24 9.414 22.279 11.434 20 11.899V23C20 23.552 19.552 24 19 24C18.448 24 18 23.552 18 23V11.899C15.721 11.434 14 9.415 14 7V1C14 0.448 14.448 0 15 0C15.552 0 16 0.448 16 1V7C16 8.302 16.839 9.402 18 9.816V1C18 0.448 18.448 0 19 0C19.552 0 20 0.448 20 1V9.816C21.161 9.402 22 8.302 22 7V1C22 0.448 22.448 0 23 0C23.552 0 24 0.448 24 1ZM14.728 21.624C13.844 21.874 12.927 22 12 22C6.486 22 2 17.514 2 12C2 6.79 5.908 2.508 11.09 2.041C11.64 1.991 12.046 1.505 11.996 0.955C11.947 0.405 11.478 0.009 10.91 0.049C4.69 0.61 0 5.748 0 12C0 18.617 5.383 24 12 24C13.11 24 14.211 23.848 15.272 23.548C15.803 23.398 16.112 22.845 15.962 22.314C15.812 21.783 15.262 21.477 14.728 21.624ZM14.571 17.423C13.765 17.806 12.901 18 12 18C8.691 18 6 15.309 6 12C6 9.033 8.21 6.48 11.142 6.061C11.689 5.983 12.069 5.477 11.99 4.93C11.912 4.383 11.403 4.007 10.859 4.082C6.949 4.641 4.001 8.046 4.001 12.001C4.001 16.412 7.59 20.001 12.001 20.001C13.201 20.001 14.355 19.742 15.43 19.23C15.929 18.993 16.141 18.396 15.904 17.897C15.667 17.398 15.07 17.186 14.571 17.423Z" fill="black"/>
</g>
<defs>
<clipPath id="clip0_331_204">
<rect width="24" height="24" fill="white"/>
</clipPath>
</defs>
</svg>
