<svg width="24" height="24" viewBox="0 0 24 24" fill="none" xmlns="http://www.w3.org/2000/svg">
<g clip-path="url(#clip0_288_2)">
<path d="M23.6791 11.408C22.8947 9.56636 21.6642 7.94898 20.0986 6.70177C18.533 5.45456 16.6814 4.61677 14.7111 4.264C14.9249 3.80771 15.0202 3.30483 14.9879 2.80194C14.9557 2.29905 14.7971 1.81243 14.5268 1.38716C14.2564 0.961897 13.8831 0.611745 13.4414 0.369149C12.9997 0.126553 12.504 -0.000637054 12.0001 -0.000637054C11.4961 -0.000637054 11.0004 0.126553 10.5587 0.369149C10.117 0.611745 9.74371 0.961897 9.47337 1.38716C9.20303 1.81243 9.04441 2.29905 9.01219 2.80194C8.97997 3.30483 9.0752 3.80771 9.28906 4.264C7.31927 4.61732 5.4684 5.45535 3.90332 6.70252C2.33824 7.94969 1.10819 9.56679 0.324063 11.408C0.0632872 12.0229 -0.0409642 12.6929 0.0206392 13.358C0.0822427 14.023 0.307779 14.6624 0.677063 15.219C1.03352 15.7535 1.51381 16.194 2.07706 16.503L2.67706 19.875C2.88128 21.0318 3.48686 22.0796 4.38729 22.8341C5.28771 23.5886 6.42533 24.0014 7.60006 24H16.4001C17.5747 24.0016 18.7123 23.5888 19.6126 22.8343C20.5129 22.0797 21.1182 21.0318 21.3221 19.875L21.9221 16.504C22.4856 16.1954 22.966 15.7549 23.3221 15.22C23.6919 14.6636 23.9181 14.0242 23.9804 13.3589C24.0427 12.6937 23.9392 12.0234 23.6791 11.408ZM12.0001 2C12.2653 2 12.5196 2.10536 12.7072 2.29289C12.8947 2.48043 13.0001 2.73478 13.0001 3C13.0001 3.26522 12.8947 3.51957 12.7072 3.70711C12.5196 3.89464 12.2653 4 12.0001 4C11.7348 4 11.4805 3.89464 11.293 3.70711C11.1054 3.51957 11.0001 3.26522 11.0001 3C11.0001 2.73478 11.1054 2.48043 11.293 2.29289C11.4805 2.10536 11.7348 2 12.0001 2ZM19.3571 19.525C19.2337 20.2193 18.8696 20.8479 18.3289 21.3005C17.7881 21.7531 17.1052 22.0008 16.4001 22H7.60006C6.89541 22.0001 6.21322 21.7521 5.6731 21.2995C5.13297 20.847 4.76938 20.2188 4.64606 19.525L4.27506 17.445C4.83012 17.8337 5.50042 18.023 6.17681 17.9822C6.8532 17.9413 7.49583 17.6727 8.00006 17.22C8.54908 17.714 9.2615 17.9874 10.0001 17.9874C10.7386 17.9874 11.451 17.714 12.0001 17.22C12.5491 17.714 13.2615 17.9874 14.0001 17.9874C14.7386 17.9874 15.451 17.714 16.0001 17.22C16.5045 17.6734 17.1477 17.9425 17.8248 17.9834C18.5018 18.0242 19.1727 17.8345 19.7281 17.445L19.3571 19.525ZM21.6571 14.112C21.4777 14.3873 21.2318 14.6129 20.9422 14.7681C20.6526 14.9233 20.3286 15.0031 20.0001 15C19.7637 15.0103 19.5324 15.0715 19.3219 15.1794C19.1113 15.2872 18.9265 15.4392 18.7801 15.625C18.6853 15.7402 18.5662 15.8329 18.4314 15.8966C18.2965 15.9603 18.1492 15.9934 18.0001 15.9934C17.8509 15.9934 17.7036 15.9603 17.5688 15.8966C17.4339 15.8329 17.3148 15.7402 17.2201 15.625C17.0775 15.4363 16.8932 15.2833 16.6815 15.1779C16.4698 15.0725 16.2365 15.0177 16.0001 15.0177C15.7636 15.0177 15.5303 15.0725 15.3187 15.1779C15.107 15.2833 14.9226 15.4363 14.7801 15.625C14.6853 15.7402 14.5662 15.8329 14.4314 15.8966C14.2965 15.9603 14.1492 15.9934 14.0001 15.9934C13.8509 15.9934 13.7036 15.9603 13.5688 15.8966C13.4339 15.8329 13.3148 15.7402 13.2201 15.625C13.0775 15.4363 12.8932 15.2833 12.6815 15.1779C12.4698 15.0725 12.2365 15.0177 12.0001 15.0177C11.7636 15.0177 11.5303 15.0725 11.3187 15.1779C11.107 15.2833 10.9226 15.4363 10.7801 15.625C10.6853 15.7402 10.5662 15.8329 10.4314 15.8966C10.2965 15.9603 10.1492 15.9934 10.0001 15.9934C9.85092 15.9934 9.70362 15.9603 9.56876 15.8966C9.4339 15.8329 9.31481 15.7402 9.22006 15.625C9.07752 15.4363 8.89316 15.2833 8.68147 15.1779C8.46978 15.0725 8.23653 15.0177 8.00006 15.0177C7.76359 15.0177 7.53034 15.0725 7.31865 15.1779C7.10696 15.2833 6.9226 15.4363 6.78006 15.625C6.68531 15.7402 6.56623 15.8329 6.43137 15.8966C6.2965 15.9603 6.14921 15.9934 6.00006 15.9934C5.85092 15.9934 5.70362 15.9603 5.56876 15.8966C5.4339 15.8329 5.31481 15.7402 5.22006 15.625C5.0737 15.4391 4.88892 15.2871 4.67836 15.1792C4.4678 15.0713 4.23643 15.0102 4.00006 15C3.67167 15.003 3.34781 14.9232 3.05838 14.768C2.76895 14.6128 2.52329 14.3872 2.34406 14.112C2.15514 13.8313 2.0399 13.5076 2.00897 13.1706C1.97804 12.8337 2.0324 12.4944 2.16706 12.184C5.43406 3.984 18.5671 3.984 21.8351 12.184C21.9697 12.4944 22.0241 12.8337 21.9932 13.1706C21.9622 13.5076 21.847 13.8313 21.6581 14.112H21.6571Z" fill="black"/>
</g>
<defs>
<clipPath id="clip0_288_2">
<rect width="24" height="24" fill="white"/>
</clipPath>
</defs>
</svg>
