<svg width="29" height="29" viewBox="0 0 29 29" fill="none" xmlns="http://www.w3.org/2000/svg">
<g clip-path="url(#clip0_289_8)">
<path d="M18.1248 4.65087C18.1286 4.89117 18.2026 5.12511 18.3376 5.32391C18.4727 5.52271 18.6629 5.67769 18.8849 5.76979C20.8692 6.64291 22.5473 8.08919 23.7037 9.92295C24.8601 11.7567 25.4421 13.8943 25.3748 16.0612C25.328 18.9454 24.1374 21.6929 22.0649 23.6993C19.9923 25.7057 17.2076 26.8065 14.3234 26.7597C11.4392 26.713 8.69168 25.5223 6.6853 23.4498C4.67893 21.3772 3.57805 18.5926 3.62483 15.7083C3.62763 13.6013 4.24247 11.5404 5.39462 9.77623C6.54677 8.01207 8.18661 6.62061 10.1148 5.771C10.3369 5.67835 10.5271 5.5229 10.6621 5.32371C10.7971 5.12452 10.871 4.89026 10.8748 4.64966C10.8751 4.45175 10.8268 4.25679 10.7342 4.08192C10.6415 3.90705 10.5073 3.75762 10.3433 3.64676C10.1794 3.53591 9.99068 3.46702 9.79387 3.44616C9.59706 3.4253 9.39813 3.4531 9.21458 3.52712C6.41039 4.74287 4.11085 6.88791 2.70332 9.60092C1.29578 12.3139 0.866243 15.4291 1.48706 18.4218C2.10788 21.4145 3.74112 24.1018 6.11167 26.0311C8.48222 27.9603 11.4452 29.0137 14.5016 29.0137C17.558 29.0137 20.5211 27.9603 22.8916 26.0311C25.2622 24.1018 26.8954 21.4145 27.5162 18.4218C28.1371 15.4291 27.7075 12.3139 26.3 9.60092C24.8924 6.88791 22.5929 4.74287 19.7887 3.52712C19.6049 3.4523 19.4055 3.4239 19.208 3.44445C19.0106 3.465 18.8213 3.53386 18.6569 3.64494C18.4924 3.75603 18.3578 3.90591 18.265 4.08136C18.1722 4.2568 18.1241 4.4524 18.1248 4.65087Z" fill="white"/>
<path d="M15.7082 1.20833C15.7082 0.540989 15.1672 0 14.4998 0C13.8325 0 13.2915 0.540989 13.2915 1.20833V8.45833C13.2915 9.12568 13.8325 9.66667 14.4998 9.66667C15.1672 9.66667 15.7082 9.12568 15.7082 8.45833V1.20833Z" fill="white"/>
</g>
<defs>
<clipPath id="clip0_289_8">
<rect width="29" height="29" fill="white"/>
</clipPath>
</defs>
</svg>
