<svg width="16" height="19" viewBox="0 0 16 19" fill="none" xmlns="http://www.w3.org/2000/svg">
<path d="M1.27924 4.77273C1.04057 4.74303 0.821002 4.73313 0.620525 4.69352C0.238663 4.60442 0 4.25788 0 3.85194C0 3.446 0.24821 3.10937 0.620525 3.02026C0.754177 2.99055 0.906921 2.97075 1.04057 2.97075C1.73747 2.96085 2.44391 2.96085 3.14081 2.97075C3.29356 2.97075 3.38902 2.92125 3.46539 2.79253C3.88544 2.13907 4.30549 1.4955 4.73508 0.85194C5.14558 0.25788 5.72792 0.0103554 6.40573 0.0103554C7.46539 0.00045444 8.52506 0.00045444 9.58473 0.0103554C10.3866 0.0103554 11.0072 0.376692 11.4463 1.05986C11.8091 1.63412 12.1814 2.19847 12.5251 2.78263C12.6205 2.94105 12.716 2.98065 12.8878 2.98065C13.6038 2.97075 14.3198 2.97075 15.0358 2.98065C15.5322 2.98065 15.8568 3.21828 15.9714 3.62422C16.1241 4.18857 15.7327 4.70342 15.1217 4.74303C15.0072 4.75293 14.8831 4.74303 14.7399 4.74303C14.7112 5.04006 14.6921 5.32719 14.673 5.60441C14.5394 7.51531 14.4057 9.4163 14.2721 11.3272C14.148 13.1292 14.0239 14.9311 13.8902 16.7331C13.7852 18.0995 12.8401 19.0005 11.5131 19.0005C9.18377 19.0005 6.85442 19.0005 4.52506 19.0005C3.41766 19.0005 2.52029 18.3569 2.25298 17.2975C2.11933 16.7628 2.10979 16.1886 2.0716 15.6341C1.94749 13.9311 1.82339 12.2282 1.70883 10.5252C1.59427 8.85194 1.47017 7.16877 1.35561 5.4955C1.31742 5.24798 1.29833 5.01036 1.27924 4.77273ZM2.98807 4.75293C3.00716 5.04006 3.02625 5.29748 3.04535 5.56481C3.13126 6.78263 3.21718 8.00045 3.3031 9.21828C3.40811 10.6935 3.51313 12.1589 3.62768 13.6341C3.69451 14.5945 3.76134 15.5549 3.83771 16.5153C3.88544 17.0797 4.05728 17.2282 4.60143 17.2282C6.87351 17.2282 9.15513 17.2282 11.4272 17.2282C11.9714 17.2282 12.2005 16.9906 12.2291 16.4262C12.2578 15.8519 12.3055 15.2777 12.3437 14.7034C12.4487 13.1985 12.5537 11.6935 12.6587 10.1886C12.7446 8.90145 12.8401 7.60442 12.926 6.31729C12.9642 5.80243 12.9928 5.28758 13.031 4.76283C9.67064 4.75293 6.34845 4.75293 2.98807 4.75293ZM10.6253 2.96085C10.3771 2.58461 10.1575 2.23808 9.91885 1.91135C9.86158 1.83214 9.71838 1.77273 9.61336 1.77273C8.53461 1.76283 7.4463 1.76283 6.36754 1.77273C6.29117 1.77273 6.18616 1.79253 6.14797 1.84204C5.89976 2.19847 5.67064 2.57471 5.42243 2.96085C7.16945 2.96085 8.86874 2.96085 10.6253 2.96085Z" fill="#4C4C4C"/>
</svg>
