<svg xmlns="http://www.w3.org/2000/svg" width="93.251" height="30.253" viewBox="0 0 93.251 30.253" data-v-24e094ae=""><g transform="translate(-155.013 -1539.497)"><path d="M195.437,1569.247h-7.609l4.756-29.227h7.609Z" fill="#005ca8"></path> <path d="M181.427,1540.02l-7.254,20.1-.858-4.329h0l-2.56-13.142s-.309-2.632-3.61-2.632H155.154l-.141.495a28.4,28.4,0,0,1,7.959,3.341l6.611,25.391h7.928l12.106-29.227Z" fill="#005ca8"></path> <path d="M241.277,1569.247h6.987l-6.092-29.227h-6.118a3.5,3.5,0,0,0-3.512,2.178l-11.348,27.049h7.931l1.587-4.341h9.673Zm-8.373-10.339,4-10.938,2.25,10.938Z" fill="#005ca8"></path> <path d="M221.789,1547.048l1.086-6.277a21.969,21.969,0,0,0-6.844-1.274c-3.776,0-12.743,1.651-12.743,9.675,0,7.552,10.525,7.646,10.525,11.61s-9.44,3.256-12.555.755l-1.132,6.561a21.305,21.305,0,0,0,8.59,1.652c5.191,0,13.026-2.69,13.026-10.006,0-7.6-10.619-8.307-10.619-11.61S218.533,1545.254,221.789,1547.048Z" fill="#005ca8"></path> <path d="M173.315,1555.794l-2.56-13.142s-.309-2.632-3.61-2.632H155.154l-.141.495a29.481,29.481,0,0,1,11.294,5.67A22.782,22.782,0,0,1,173.315,1555.794Z" fill="#f6a723"></path></g></svg>