<svg width="176" height="62" viewBox="0 0 176 62" fill="none" xmlns="http://www.w3.org/2000/svg">
<rect width="176" height="62" rx="31" fill="white"/>
<path d="M24.8576 45L21.32 32.6364H24.1754L26.2219 41.2269H26.3246L28.5824 32.6364H31.0273L33.2791 41.245H33.3878L35.4343 32.6364H38.2898L34.7521 45H32.2045L29.8501 36.9165H29.7536L27.4052 45H24.8576ZM42.2123 39.6392V45H39.6405V32.6364H42.1398V37.3633H42.2485C42.4578 36.8159 42.7958 36.3873 43.2627 36.0774C43.7296 35.7635 44.3151 35.6065 45.0194 35.6065C45.6634 35.6065 46.2248 35.7474 46.7037 36.0291C47.1867 36.3068 47.561 36.7073 47.8266 37.2305C48.0963 37.7496 48.2291 38.3714 48.2251 39.0959V45H45.6533V39.5547C45.6573 38.9832 45.5125 38.5385 45.2187 38.2205C44.9289 37.9026 44.5224 37.7436 43.9992 37.7436C43.6491 37.7436 43.3392 37.8181 43.0695 37.967C42.8039 38.1159 42.5946 38.3332 42.4417 38.619C42.2928 38.9007 42.2163 39.2408 42.2123 39.6392ZM52.8931 45.1751C52.3015 45.1751 51.7743 45.0724 51.3114 44.8672C50.8486 44.6579 50.4824 44.35 50.2127 43.9435C49.9471 43.533 49.8143 43.0219 49.8143 42.4102C49.8143 41.895 49.9089 41.4624 50.098 41.1122C50.2872 40.7621 50.5447 40.4804 50.8707 40.267C51.1967 40.0537 51.567 39.8928 51.9815 39.7841C52.4001 39.6754 52.8388 39.599 53.2976 39.5547C53.8369 39.4983 54.2715 39.446 54.6016 39.3977C54.9316 39.3454 55.171 39.2689 55.32 39.1683C55.4689 39.0677 55.5433 38.9188 55.5433 38.7216V38.6854C55.5433 38.303 55.4226 38.0072 55.1811 37.7979C54.9437 37.5887 54.6056 37.484 54.1669 37.484C53.7041 37.484 53.3358 37.5866 53.0621 37.7919C52.7885 37.9931 52.6074 38.2467 52.5188 38.5526L50.1403 38.3594C50.261 37.7959 50.4985 37.3089 50.8526 36.8984C51.2068 36.4839 51.6636 36.166 52.223 35.9446C52.7865 35.7192 53.4384 35.6065 54.179 35.6065C54.6941 35.6065 55.1871 35.6669 55.658 35.7876C56.1329 35.9084 56.5535 36.0955 56.9197 36.3491C57.29 36.6026 57.5818 36.9286 57.7951 37.3271C58.0084 37.7215 58.1151 38.1944 58.1151 38.7457V45H55.6761V43.7141H55.6037C55.4548 44.0039 55.2556 44.2595 55.006 44.4808C54.7565 44.6982 54.4567 44.8692 54.1065 44.994C53.7564 45.1147 53.3519 45.1751 52.8931 45.1751ZM53.6296 43.4002C54.0079 43.4002 54.342 43.3258 54.6317 43.1768C54.9215 43.0239 55.1489 42.8187 55.3139 42.5611C55.4789 42.3035 55.5614 42.0117 55.5614 41.6857V40.7017C55.4809 40.754 55.3703 40.8023 55.2294 40.8466C55.0926 40.8868 54.9376 40.9251 54.7646 40.9613C54.5915 40.9935 54.4184 41.0237 54.2454 41.0518C54.0723 41.076 53.9154 41.0981 53.7745 41.1183C53.4727 41.1625 53.209 41.233 52.9837 41.3295C52.7583 41.4261 52.5832 41.5569 52.4585 41.7219C52.3337 41.8829 52.2713 42.0842 52.2713 42.3256C52.2713 42.6758 52.3981 42.9434 52.6516 43.1286C52.9092 43.3097 53.2352 43.4002 53.6296 43.4002ZM65.0424 35.7273V37.6591H59.4583V35.7273H65.0424ZM60.726 33.5057H63.2978V42.1506C63.2978 42.388 63.334 42.5732 63.4064 42.706C63.4789 42.8348 63.5795 42.9253 63.7083 42.9776C63.8411 43.0299 63.994 43.0561 64.1671 43.0561C64.2878 43.0561 64.4086 43.046 64.5293 43.0259C64.65 43.0018 64.7426 42.9837 64.807 42.9716L65.2115 44.8853C65.0827 44.9255 64.9016 44.9718 64.6681 45.0241C64.4347 45.0805 64.151 45.1147 63.8169 45.1268C63.1971 45.1509 62.6538 45.0684 62.187 44.8793C61.7241 44.6901 61.3639 44.3963 61.1064 43.9979C60.8488 43.5994 60.722 43.0964 60.726 42.4886V33.5057ZM74.3167 38.3714L71.9623 38.5163C71.922 38.3151 71.8355 38.134 71.7027 37.973C71.5699 37.808 71.3948 37.6772 71.1775 37.5806C70.9642 37.48 70.7086 37.4297 70.4108 37.4297C70.0123 37.4297 69.6763 37.5142 69.4026 37.6832C69.1289 37.8482 68.9921 38.0696 68.9921 38.3473C68.9921 38.5687 69.0806 38.7558 69.2577 38.9087C69.4348 39.0617 69.7387 39.1844 70.1693 39.277L71.8476 39.6151C72.7491 39.8002 73.4212 40.098 73.8639 40.5085C74.3066 40.919 74.528 41.4583 74.528 42.1264C74.528 42.7341 74.3489 43.2674 73.9907 43.7262C73.6365 44.185 73.1495 44.5432 72.5297 44.8008C71.914 45.0543 71.2036 45.1811 70.3987 45.1811C69.1712 45.1811 68.1932 44.9255 67.4648 44.4144C66.7403 43.8993 66.3157 43.199 66.191 42.3136L68.7204 42.1808C68.7969 42.555 68.982 42.8408 69.2758 43.038C69.5696 43.2312 69.9459 43.3278 70.4047 43.3278C70.8555 43.3278 71.2177 43.2412 71.4914 43.0682C71.7691 42.8911 71.9099 42.6637 71.914 42.386C71.9099 42.1526 71.8113 41.9614 71.6182 41.8125C71.425 41.6596 71.1272 41.5429 70.7247 41.4624L69.1189 41.1424C68.2133 40.9613 67.5392 40.6474 67.0965 40.2006C66.6578 39.7539 66.4385 39.1844 66.4385 38.4922C66.4385 37.8965 66.5995 37.3834 66.9214 36.9528C67.2474 36.5221 67.7042 36.1901 68.2918 35.9567C68.8834 35.7232 69.5757 35.6065 70.3685 35.6065C71.5397 35.6065 72.4613 35.854 73.1334 36.3491C73.8096 36.8441 74.204 37.5182 74.3167 38.3714ZM78.7915 45.1751C78.1999 45.1751 77.6727 45.0724 77.2099 44.8672C76.747 44.6579 76.3808 44.35 76.1112 43.9435C75.8455 43.533 75.7127 43.0219 75.7127 42.4102C75.7127 41.895 75.8073 41.4624 75.9964 41.1122C76.1856 40.7621 76.4432 40.4804 76.7692 40.267C77.0952 40.0537 77.4654 39.8928 77.88 39.7841C78.2985 39.6754 78.7372 39.599 79.196 39.5547C79.7353 39.4983 80.17 39.446 80.5 39.3977C80.83 39.3454 81.0695 39.2689 81.2184 39.1683C81.3673 39.0677 81.4418 38.9188 81.4418 38.7216V38.6854C81.4418 38.303 81.321 38.0072 81.0795 37.7979C80.8421 37.5887 80.504 37.484 80.0653 37.484C79.6025 37.484 79.2343 37.5866 78.9606 37.7919C78.6869 37.9931 78.5058 38.2467 78.4173 38.5526L76.0387 38.3594C76.1594 37.7959 76.3969 37.3089 76.7511 36.8984C77.1052 36.4839 77.562 36.166 78.1214 35.9446C78.6849 35.7192 79.3369 35.6065 80.0774 35.6065C80.5926 35.6065 81.0856 35.6669 81.5565 35.7876C82.0314 35.9084 82.4519 36.0955 82.8182 36.3491C83.1884 36.6026 83.4802 36.9286 83.6935 37.3271C83.9068 37.7215 84.0135 38.1944 84.0135 38.7457V45H81.5746V43.7141H81.5021C81.3532 44.0039 81.154 44.2595 80.9045 44.4808C80.6549 44.6982 80.3551 44.8692 80.005 44.994C79.6548 45.1147 79.2504 45.1751 78.7915 45.1751ZM79.5281 43.4002C79.9064 43.4002 80.2404 43.3258 80.5302 43.1768C80.82 43.0239 81.0473 42.8187 81.2124 42.5611C81.3774 42.3035 81.4599 42.0117 81.4599 41.6857V40.7017C81.3794 40.754 81.2687 40.8023 81.1278 40.8466C80.991 40.8868 80.8361 40.9251 80.663 40.9613C80.4899 40.9935 80.3169 41.0237 80.1438 41.0518C79.9708 41.076 79.8138 41.0981 79.6729 41.1183C79.3711 41.1625 79.1075 41.233 78.8821 41.3295C78.6567 41.4261 78.4817 41.5569 78.3569 41.7219C78.2321 41.8829 78.1697 42.0842 78.1697 42.3256C78.1697 42.6758 78.2965 42.9434 78.5501 43.1286C78.8076 43.3097 79.1336 43.4002 79.5281 43.4002ZM86.0087 48.4773V35.7273H88.5442V37.2848H88.6589C88.7716 37.0353 88.9346 36.7817 89.1479 36.5241C89.3652 36.2625 89.647 36.0452 89.9931 35.8722C90.3432 35.6951 90.7779 35.6065 91.2971 35.6065C91.9732 35.6065 92.597 35.7836 93.1685 36.1378C93.74 36.4879 94.1968 37.0172 94.5389 37.7255C94.881 38.4298 95.052 39.3132 95.052 40.3757C95.052 41.41 94.885 42.2834 94.551 42.9957C94.2209 43.7041 93.7702 44.2414 93.1987 44.6076C92.6312 44.9698 91.9953 45.1509 91.291 45.1509C90.792 45.1509 90.3674 45.0684 90.0172 44.9034C89.6711 44.7384 89.3874 44.5311 89.166 44.2816C88.9447 44.0281 88.7756 43.7725 88.6589 43.5149H88.5804V48.4773H86.0087ZM88.5261 40.3636C88.5261 40.915 88.6026 41.396 88.7555 41.8065C88.9084 42.217 89.1298 42.5369 89.4196 42.7663C89.7093 42.9917 90.0615 43.1044 90.476 43.1044C90.8946 43.1044 91.2488 42.9897 91.5385 42.7603C91.8283 42.5269 92.0476 42.2049 92.1966 41.7944C92.3495 41.3799 92.426 40.9029 92.426 40.3636C92.426 39.8284 92.3515 39.3575 92.2026 38.951C92.0537 38.5445 91.8343 38.2266 91.5446 37.9972C91.2548 37.7678 90.8986 37.6531 90.476 37.6531C90.0575 37.6531 89.7033 37.7637 89.4135 37.9851C89.1278 38.2064 88.9084 38.5204 88.7555 38.9268C88.6026 39.3333 88.5261 39.8123 88.5261 40.3636ZM96.7665 48.4773V35.7273H99.302V37.2848H99.4167C99.5294 37.0353 99.6924 36.7817 99.9057 36.5241C100.123 36.2625 100.405 36.0452 100.751 35.8722C101.101 35.6951 101.536 35.6065 102.055 35.6065C102.731 35.6065 103.355 35.7836 103.926 36.1378C104.498 36.4879 104.955 37.0172 105.297 37.7255C105.639 38.4298 105.81 39.3132 105.81 40.3757C105.81 41.41 105.643 42.2834 105.309 42.9957C104.979 43.7041 104.528 44.2414 103.956 44.6076C103.389 44.9698 102.753 45.1509 102.049 45.1509C101.55 45.1509 101.125 45.0684 100.775 44.9034C100.429 44.7384 100.145 44.5311 99.9238 44.2816C99.7025 44.0281 99.5334 43.7725 99.4167 43.5149H99.3382V48.4773H96.7665ZM99.2839 40.3636C99.2839 40.915 99.3604 41.396 99.5133 41.8065C99.6663 42.217 99.8876 42.5369 100.177 42.7663C100.467 42.9917 100.819 43.1044 101.234 43.1044C101.652 43.1044 102.007 42.9897 102.296 42.7603C102.586 42.5269 102.805 42.2049 102.954 41.7944C103.107 41.3799 103.184 40.9029 103.184 40.3636C103.184 39.8284 103.109 39.3575 102.96 38.951C102.811 38.5445 102.592 38.2266 102.302 37.9972C102.013 37.7678 101.656 37.6531 101.234 37.6531C100.815 37.6531 100.461 37.7637 100.171 37.9851C99.8856 38.2064 99.6663 38.5204 99.5133 38.9268C99.3604 39.3333 99.2839 39.8123 99.2839 40.3636Z" fill="black"/>
<path d="M20.6321 26V18.7273H22.1697V21.728H25.2912V18.7273H26.8253V26H25.2912V22.9957H22.1697V26H20.6321ZM29.62 26.103C29.272 26.103 28.9619 26.0426 28.6896 25.9219C28.4174 25.7988 28.2019 25.6177 28.0433 25.3786C27.8871 25.1371 27.8089 24.8364 27.8089 24.4766C27.8089 24.1735 27.8646 23.919 27.9759 23.7131C28.0871 23.5071 28.2386 23.3414 28.4304 23.2159C28.6222 23.0904 28.84 22.9957 29.0838 22.9318C29.33 22.8679 29.5881 22.8229 29.858 22.7969C30.1752 22.7637 30.4309 22.733 30.625 22.7045C30.8191 22.6738 30.96 22.6288 31.0476 22.5696C31.1352 22.5104 31.179 22.4228 31.179 22.3068V22.2855C31.179 22.0606 31.108 21.8866 30.9659 21.7635C30.8262 21.6404 30.6274 21.5788 30.3693 21.5788C30.0971 21.5788 29.8804 21.6392 29.7195 21.7599C29.5585 21.8783 29.4519 22.0275 29.3999 22.2074L28.0007 22.0938C28.0717 21.7623 28.2114 21.4759 28.4197 21.2344C28.6281 20.9905 28.8968 20.8035 29.2259 20.6733C29.5573 20.5407 29.9408 20.4744 30.3764 20.4744C30.6795 20.4744 30.9695 20.5099 31.2464 20.581C31.5258 20.652 31.7732 20.7621 31.9886 20.9112C32.2064 21.0604 32.3781 21.2521 32.5036 21.4865C32.629 21.7185 32.6918 21.9967 32.6918 22.321V26H31.2571V25.2436H31.2145C31.1269 25.4141 31.0097 25.5644 30.8629 25.6946C30.7161 25.8224 30.5398 25.9231 30.3338 25.9964C30.1278 26.0675 29.8899 26.103 29.62 26.103ZM30.0533 25.0589C30.2758 25.0589 30.4723 25.0152 30.6428 24.9276C30.8132 24.8376 30.947 24.7169 31.044 24.5653C31.1411 24.4138 31.1896 24.2422 31.1896 24.0504V23.4716C31.1423 23.5024 31.0772 23.5308 30.9943 23.5568C30.9138 23.5805 30.8227 23.603 30.7209 23.6243C30.6191 23.6432 30.5173 23.661 30.4155 23.6776C30.3137 23.6918 30.2214 23.7048 30.1385 23.7166C29.9609 23.7427 29.8059 23.7841 29.6733 23.8409C29.5407 23.8977 29.4377 23.9747 29.3643 24.0717C29.291 24.1664 29.2543 24.2848 29.2543 24.4268C29.2543 24.6328 29.3288 24.7902 29.478 24.8991C29.6295 25.0057 29.8213 25.0589 30.0533 25.0589ZM33.837 26V25.098L36.5075 21.7919V21.7528H33.9293V20.5455H38.3292V21.5291L35.8221 24.7536V24.7926H38.4215V26H33.837ZM44.794 20.5455V21.6818H41.5092V20.5455H44.794ZM42.255 19.2386H43.7678V24.3239C43.7678 24.4635 43.7891 24.5724 43.8317 24.6506C43.8743 24.7263 43.9335 24.7796 44.0092 24.8104C44.0874 24.8411 44.1773 24.8565 44.2791 24.8565C44.3501 24.8565 44.4212 24.8506 44.4922 24.8388C44.5632 24.8246 44.6177 24.8139 44.6555 24.8068L44.8935 25.9325C44.8177 25.9562 44.7112 25.9834 44.5739 26.0142C44.4366 26.0473 44.2696 26.0675 44.0732 26.0746C43.7086 26.0888 43.389 26.0402 43.1143 25.929C42.8421 25.8177 42.6302 25.6449 42.4787 25.4105C42.3272 25.1761 42.2526 24.8802 42.255 24.5227V19.2386ZM49.2773 23.6776V20.5455H50.7901V26H49.3377V25.0092H49.2809C49.1578 25.3288 48.953 25.5857 48.6665 25.7798C48.3825 25.974 48.0356 26.071 47.6261 26.071C47.2615 26.071 46.9407 25.9882 46.6637 25.8224C46.3867 25.6567 46.1701 25.4212 46.0138 25.1158C45.86 24.8104 45.7818 24.4446 45.7795 24.0185V20.5455H47.2923V23.7486C47.2946 24.0705 47.381 24.325 47.5515 24.5121C47.7219 24.6991 47.9504 24.7926 48.2369 24.7926C48.4192 24.7926 48.5896 24.7512 48.7482 24.6683C48.9068 24.5831 49.0347 24.4576 49.1317 24.2919C49.2312 24.1262 49.2797 23.9214 49.2773 23.6776ZM54.3146 28.0455V20.5455H55.8061V21.4616H55.8736C55.9399 21.3149 56.0357 21.1657 56.1612 21.0142C56.2891 20.8603 56.4548 20.7325 56.6584 20.6307C56.8643 20.5265 57.12 20.4744 57.4254 20.4744C57.8232 20.4744 58.1901 20.5786 58.5263 20.7869C58.8625 20.9929 59.1312 21.3042 59.3324 21.7209C59.5336 22.1352 59.6342 22.6548 59.6342 23.2798C59.6342 23.8883 59.536 24.402 59.3395 24.821C59.1454 25.2377 58.8802 25.5537 58.544 25.7692C58.2102 25.9822 57.8362 26.0888 57.4219 26.0888C57.1283 26.0888 56.8786 26.0402 56.6726 25.9432C56.469 25.8461 56.3021 25.7242 56.1719 25.5774C56.0417 25.4283 55.9422 25.2779 55.8736 25.1264H55.8274V28.0455H54.3146ZM55.7955 23.2727C55.7955 23.5971 55.8404 23.88 55.9304 24.1214C56.0204 24.3629 56.1506 24.5511 56.321 24.6861C56.4915 24.8187 56.6986 24.8849 56.9425 24.8849C57.1887 24.8849 57.397 24.8175 57.5675 24.6825C57.7379 24.5452 57.867 24.3558 57.9545 24.1143C58.0445 23.8705 58.0895 23.59 58.0895 23.2727C58.0895 22.9579 58.0457 22.6809 57.9581 22.4418C57.8705 22.2027 57.7415 22.0156 57.571 21.8807C57.4006 21.7457 57.1911 21.6783 56.9425 21.6783C56.6963 21.6783 56.4879 21.7434 56.3175 21.8736C56.1494 22.0038 56.0204 22.1884 55.9304 22.4276C55.8404 22.6667 55.7955 22.9484 55.7955 23.2727ZM63.1286 26.1065C62.5675 26.1065 62.0845 25.9929 61.6797 25.7656C61.2772 25.536 60.9671 25.2116 60.7493 24.7926C60.5315 24.3712 60.4226 23.8729 60.4226 23.2976C60.4226 22.7365 60.5315 22.2441 60.7493 21.8203C60.9671 21.3965 61.2737 21.0663 61.669 20.8295C62.0668 20.5928 62.5331 20.4744 63.0682 20.4744C63.428 20.4744 63.763 20.5324 64.0732 20.6484C64.3857 20.7621 64.6579 20.9337 64.8899 21.1634C65.1243 21.393 65.3066 21.6818 65.4368 22.0298C65.567 22.3755 65.6321 22.7803 65.6321 23.2443V23.6598H61.0263V22.7223H64.2081C64.2081 22.5045 64.1607 22.3116 64.0661 22.1435C63.9714 21.9754 63.84 21.844 63.6719 21.7493C63.5062 21.6522 63.3132 21.6037 63.093 21.6037C62.8634 21.6037 62.6598 21.657 62.4822 21.7635C62.3071 21.8677 62.1697 22.0085 62.0703 22.1861C61.9709 22.3613 61.92 22.5566 61.9176 22.772V23.6634C61.9176 23.9332 61.9673 24.1664 62.0668 24.3629C62.1686 24.5594 62.3118 24.7109 62.4964 24.8175C62.6811 24.924 62.9001 24.9773 63.1534 24.9773C63.3215 24.9773 63.4754 24.9536 63.6151 24.9062C63.7547 24.8589 63.8743 24.7879 63.9737 24.6932C64.0732 24.5985 64.1489 24.4825 64.201 24.3452L65.6001 24.4375C65.5291 24.7737 65.3835 25.0672 65.1634 25.3182C64.9455 25.5668 64.6638 25.7609 64.3182 25.9006C63.9749 26.0379 63.5784 26.1065 63.1286 26.1065ZM68.6293 26.0888C68.215 26.0888 67.8397 25.9822 67.5036 25.7692C67.1697 25.5537 66.9046 25.2377 66.7081 24.821C66.514 24.402 66.4169 23.8883 66.4169 23.2798C66.4169 22.6548 66.5175 22.1352 66.7188 21.7209C66.92 21.3042 67.1875 20.9929 67.5213 20.7869C67.8575 20.5786 68.2256 20.4744 68.6257 20.4744C68.9311 20.4744 69.1856 20.5265 69.3892 20.6307C69.5952 20.7325 69.7609 20.8603 69.8864 21.0142C70.0142 21.1657 70.1113 21.3149 70.1776 21.4616H70.2237V18.7273H71.733V26H70.2415V25.1264H70.1776C70.1065 25.2779 70.0059 25.4283 69.8757 25.5774C69.7479 25.7242 69.581 25.8461 69.375 25.9432C69.1714 26.0402 68.9228 26.0888 68.6293 26.0888ZM69.1087 24.8849C69.3525 24.8849 69.5585 24.8187 69.7266 24.6861C69.897 24.5511 70.0272 24.3629 70.1172 24.1214C70.2095 23.88 70.2557 23.5971 70.2557 23.2727C70.2557 22.9484 70.2107 22.6667 70.1207 22.4276C70.0308 22.1884 69.9006 22.0038 69.7301 21.8736C69.5597 21.7434 69.3525 21.6783 69.1087 21.6783C68.8601 21.6783 68.6506 21.7457 68.4801 21.8807C68.3097 22.0156 68.1806 22.2027 68.093 22.4418C68.0054 22.6809 67.9616 22.9579 67.9616 23.2727C67.9616 23.59 68.0054 23.8705 68.093 24.1143C68.183 24.3558 68.312 24.5452 68.4801 24.6825C68.6506 24.8175 68.8601 24.8849 69.1087 24.8849ZM72.9767 26V20.5455H74.4895V26H72.9767ZM73.7367 19.8423C73.5118 19.8423 73.3188 19.7678 73.1578 19.6186C72.9992 19.4671 72.9199 19.286 72.9199 19.0753C72.9199 18.867 72.9992 18.6882 73.1578 18.5391C73.3188 18.3875 73.5118 18.3118 73.7367 18.3118C73.9616 18.3118 74.1533 18.3875 74.312 18.5391C74.473 18.6882 74.5534 18.867 74.5534 19.0753C74.5534 19.286 74.473 19.4671 74.312 19.6186C74.1533 19.7678 73.9616 19.8423 73.7367 19.8423ZM77.7113 26.0888C77.297 26.0888 76.9218 25.9822 76.5856 25.7692C76.2518 25.5537 75.9866 25.2377 75.7901 24.821C75.596 24.402 75.4989 23.8883 75.4989 23.2798C75.4989 22.6548 75.5996 22.1352 75.8008 21.7209C76.002 21.3042 76.2695 20.9929 76.6033 20.7869C76.9395 20.5786 77.3076 20.4744 77.7077 20.4744C78.0131 20.4744 78.2676 20.5265 78.4712 20.6307C78.6772 20.7325 78.8429 20.8603 78.9684 21.0142C79.0962 21.1657 79.1933 21.3149 79.2596 21.4616H79.3058V18.7273H80.815V26H79.3235V25.1264H79.2596C79.1886 25.2779 79.0879 25.4283 78.9577 25.5774C78.8299 25.7242 78.663 25.8461 78.457 25.9432C78.2534 26.0402 78.0049 26.0888 77.7113 26.0888ZM78.1907 24.8849C78.4345 24.8849 78.6405 24.8187 78.8086 24.6861C78.979 24.5511 79.1093 24.3629 79.1992 24.1214C79.2915 23.88 79.3377 23.5971 79.3377 23.2727C79.3377 22.9484 79.2927 22.6667 79.2028 22.4276C79.1128 22.1884 78.9826 22.0038 78.8121 21.8736C78.6417 21.7434 78.4345 21.6783 78.1907 21.6783C77.9421 21.6783 77.7326 21.7457 77.5621 21.8807C77.3917 22.0156 77.2627 22.2027 77.1751 22.4418C77.0875 22.6809 77.0437 22.9579 77.0437 23.2727C77.0437 23.59 77.0875 23.8705 77.1751 24.1143C77.265 24.3558 77.3941 24.5452 77.5621 24.6825C77.7326 24.8175 77.9421 24.8849 78.1907 24.8849ZM84.5233 26.1065C83.9717 26.1065 83.4946 25.9893 83.0922 25.755C82.6921 25.5182 82.3831 25.1892 82.1653 24.7678C81.9475 24.344 81.8386 23.8527 81.8386 23.294C81.8386 22.7306 81.9475 22.2382 82.1653 21.8168C82.3831 21.393 82.6921 21.0639 83.0922 20.8295C83.4946 20.5928 83.9717 20.4744 84.5233 20.4744C85.0749 20.4744 85.5507 20.5928 85.9508 20.8295C86.3533 21.0639 86.6634 21.393 86.8812 21.8168C87.099 22.2382 87.2079 22.7306 87.2079 23.294C87.2079 23.8527 87.099 24.344 86.8812 24.7678C86.6634 25.1892 86.3533 25.5182 85.9508 25.755C85.5507 25.9893 85.0749 26.1065 84.5233 26.1065ZM84.5304 24.9347C84.7813 24.9347 84.9908 24.8636 85.1589 24.7216C85.327 24.5772 85.4537 24.3807 85.5389 24.1321C85.6265 23.8835 85.6703 23.6006 85.6703 23.2834C85.6703 22.9661 85.6265 22.6832 85.5389 22.4347C85.4537 22.1861 85.327 21.9896 85.1589 21.8452C84.9908 21.7008 84.7813 21.6286 84.5304 21.6286C84.277 21.6286 84.064 21.7008 83.8912 21.8452C83.7207 21.9896 83.5917 22.1861 83.5041 22.4347C83.4189 22.6832 83.3762 22.9661 83.3762 23.2834C83.3762 23.6006 83.4189 23.8835 83.5041 24.1321C83.5917 24.3807 83.7207 24.5772 83.8912 24.7216C84.064 24.8636 84.277 24.9347 84.5304 24.9347ZM90.506 28.0455V20.5455H91.9975V21.4616H92.065C92.1313 21.3149 92.2272 21.1657 92.3526 21.0142C92.4805 20.8603 92.6462 20.7325 92.8498 20.6307C93.0558 20.5265 93.3114 20.4744 93.6168 20.4744C94.0146 20.4744 94.3815 20.5786 94.7177 20.7869C95.0539 20.9929 95.3226 21.3042 95.5238 21.7209C95.725 22.1352 95.8256 22.6548 95.8256 23.2798C95.8256 23.8883 95.7274 24.402 95.5309 24.821C95.3368 25.2377 95.0716 25.5537 94.7354 25.7692C94.4016 25.9822 94.0276 26.0888 93.6133 26.0888C93.3197 26.0888 93.07 26.0402 92.864 25.9432C92.6604 25.8461 92.4935 25.7242 92.3633 25.5774C92.2331 25.4283 92.1336 25.2779 92.065 25.1264H92.0188V28.0455H90.506ZM91.9869 23.2727C91.9869 23.5971 92.0318 23.88 92.1218 24.1214C92.2118 24.3629 92.342 24.5511 92.5124 24.6861C92.6829 24.8187 92.89 24.8849 93.1339 24.8849C93.3801 24.8849 93.5884 24.8175 93.7589 24.6825C93.9293 24.5452 94.0584 24.3558 94.146 24.1143C94.2359 23.8705 94.2809 23.59 94.2809 23.2727C94.2809 22.9579 94.2371 22.6809 94.1495 22.4418C94.0619 22.2027 93.9329 22.0156 93.7624 21.8807C93.592 21.7457 93.3825 21.6783 93.1339 21.6783C92.8877 21.6783 92.6793 21.7434 92.5089 21.8736C92.3408 22.0038 92.2118 22.1884 92.1218 22.4276C92.0318 22.6667 91.9869 22.9484 91.9869 23.2727ZM99.2987 26.1065C98.747 26.1065 98.27 25.9893 97.8675 25.755C97.4674 25.5182 97.1585 25.1892 96.9407 24.7678C96.7229 24.344 96.614 23.8527 96.614 23.294C96.614 22.7306 96.7229 22.2382 96.9407 21.8168C97.1585 21.393 97.4674 21.0639 97.8675 20.8295C98.27 20.5928 98.747 20.4744 99.2987 20.4744C99.8503 20.4744 100.326 20.5928 100.726 20.8295C101.129 21.0639 101.439 21.393 101.657 21.8168C101.874 22.2382 101.983 22.7306 101.983 23.294C101.983 23.8527 101.874 24.344 101.657 24.7678C101.439 25.1892 101.129 25.5182 100.726 25.755C100.326 25.9893 99.8503 26.1065 99.2987 26.1065ZM99.3058 24.9347C99.5567 24.9347 99.7662 24.8636 99.9343 24.7216C100.102 24.5772 100.229 24.3807 100.314 24.1321C100.402 23.8835 100.446 23.6006 100.446 23.2834C100.446 22.9661 100.402 22.6832 100.314 22.4347C100.229 22.1861 100.102 21.9896 99.9343 21.8452C99.7662 21.7008 99.5567 21.6286 99.3058 21.6286C99.0524 21.6286 98.8394 21.7008 98.6665 21.8452C98.4961 21.9896 98.3671 22.1861 98.2795 22.4347C98.1942 22.6832 98.1516 22.9661 98.1516 23.2834C98.1516 23.6006 98.1942 23.8835 98.2795 24.1321C98.3671 24.3807 98.4961 24.5772 98.6665 24.7216C98.8394 24.8636 99.0524 24.9347 99.3058 24.9347ZM102.967 26V20.5455H104.434V21.4972H104.49C104.59 21.1586 104.757 20.9029 104.991 20.7301C105.225 20.5549 105.495 20.4673 105.801 20.4673C105.877 20.4673 105.958 20.4721 106.046 20.4815C106.133 20.491 106.21 20.504 106.277 20.5206V21.8629C106.206 21.8416 106.107 21.8227 105.982 21.8061C105.856 21.7895 105.742 21.7812 105.637 21.7812C105.415 21.7812 105.216 21.8298 105.041 21.9268C104.868 22.0215 104.731 22.1541 104.629 22.3246C104.529 22.495 104.48 22.6915 104.48 22.9141V26H102.967Z" fill="black"/>
<path fill-rule="evenodd" clip-rule="evenodd" d="M162 29.8692C162 43.0491 151.23 53.7368 137.946 53.7368C133.727 53.7368 129.764 52.6601 126.319 50.767L113 55L117.341 42.195C115.15 38.5971 113.89 34.3795 113.89 29.871C113.89 16.686 124.66 6 137.946 6C151.232 6 162 16.686 162 29.8692Z" fill="white"/>
<path fill-rule="evenodd" clip-rule="evenodd" d="M137.946 9.80162C126.791 9.80162 117.721 18.8033 117.721 29.8692C117.721 34.258 119.15 38.3249 121.572 41.6353L119.047 49.0862L126.818 46.618C130.011 48.713 133.836 49.9352 137.946 49.9352C149.096 49.9352 158.169 40.9335 158.169 29.8692C158.169 18.805 149.096 9.80162 137.946 9.80162Z" fill="#00D761"/>
<path fill-rule="evenodd" clip-rule="evenodd" d="M150.092 35.3671C149.943 35.1224 149.549 34.9769 148.962 34.6842C148.372 34.3915 145.472 32.9759 144.931 32.7808C144.392 32.5857 143.995 32.4881 143.605 33.0735C143.211 33.6589 142.081 34.9769 141.736 35.3671C141.393 35.7591 141.049 35.8053 140.46 35.5126C139.87 35.2199 137.968 34.6003 135.717 32.6096C133.966 31.0572 132.782 29.1435 132.436 28.5581C132.094 27.9727 132.402 27.6578 132.694 27.3651C132.96 27.1015 133.285 26.6821 133.579 26.3415C133.876 25.9992 133.973 25.7527 134.17 25.3624C134.367 24.9722 134.269 24.6315 134.12 24.3388C133.975 24.0462 132.794 21.1671 132.303 19.9946C131.815 18.8256 131.322 18.8683 130.976 18.8683C130.63 18.8683 129.997 18.971 129.997 18.971C129.997 18.971 128.814 19.1165 128.275 19.7019C127.736 20.2873 126.212 21.7029 126.212 24.5802C126.212 27.4575 128.323 30.2424 128.619 30.6309C128.915 31.0229 132.696 37.1233 138.692 39.4649C144.686 41.8064 144.686 41.0259 145.768 40.9267C146.848 40.8308 149.257 39.5128 149.748 38.1452C150.239 36.7793 150.239 35.6068 150.094 35.3637L150.092 35.3671Z" fill="white"/>
</svg>
