<svg xmlns="http://www.w3.org/2000/svg" width="90.867" height="90.86" viewBox="0 0 90.867 90.86" data-v-5b7f92a0=""><path d="M585.065,836.752a45.43,45.43,0,1,0,45.43,45.434A45.435,45.435,0,0,0,585.065,836.752Zm21.6,34.351c.015.482.027.954.027,1.438,0,14.725-11.2,31.712-31.709,31.712a31.5,31.5,0,0,1-17.081-5.007,22.405,22.405,0,0,0,16.5-4.618,11.159,11.159,0,0,1-10.413-7.731,11.356,11.356,0,0,0,2.1.2,11.112,11.112,0,0,0,2.929-.389,11.163,11.163,0,0,1-8.935-10.937v-.137a11.052,11.052,0,0,0,5.047,1.4,11.157,11.157,0,0,1-3.45-14.88,31.631,31.631,0,0,0,22.969,11.641,11.164,11.164,0,0,1,10.86-13.683,11.076,11.076,0,0,1,8.131,3.525,22.348,22.348,0,0,0,7.076-2.715,11.194,11.194,0,0,1-4.9,6.173,22.475,22.475,0,0,0,6.4-1.757A22.8,22.8,0,0,1,606.667,871.1Z" transform="translate(-539.628 -836.752)" fill="#fff"></path></svg>